<svg xmlns="http://www.w3.org/2000/svg" xmlns:xlink="http://www.w3.org/1999/xlink" width="1400" zoomAndPan="magnify" viewBox="0 0 1050 318.749988" height="425" preserveAspectRatio="xMidYMid meet" version="1.0"><defs><g/><clipPath id="a83e0ff5f3"><path d="M 0.410156 0 L 1049.585938 0 L 1049.585938 318.5 L 0.410156 318.5 Z M 0.410156 0 " clip-rule="nonzero"/></clipPath><clipPath id="a7c84c2f89"><path d="M 99.144531 197.960938 L 512.820312 197.960938 L 512.820312 263.910156 L 99.144531 263.910156 Z M 99.144531 197.960938 " clip-rule="nonzero"/></clipPath><clipPath id="9201be1fdc"><path d="M 725.582031 78.113281 L 909.9375 78.113281 L 909.9375 262.46875 L 725.582031 262.46875 Z M 725.582031 78.113281 " clip-rule="nonzero"/></clipPath></defs><g clip-path="url(#a83e0ff5f3)"><path fill="#ffffff" d="M 0.410156 0 L 1049.589844 0 L 1049.589844 325.246094 L 0.410156 325.246094 Z M 0.410156 0 " fill-opacity="1" fill-rule="nonzero"/><path fill="#ffffff" d="M 0.410156 0 L 1049.589844 0 L 1049.589844 318.5 L 0.410156 318.5 Z M 0.410156 0 " fill-opacity="1" fill-rule="nonzero"/><path fill="#e4e6ea" d="M 0.410156 0 L 1049.589844 0 L 1049.589844 318.5 L 0.410156 318.5 Z M 0.410156 0 " fill-opacity="1" fill-rule="nonzero"/></g><g clip-path="url(#a7c84c2f89)"><path fill="#18795b" d="M 99.144531 197.960938 L 512.820312 197.960938 L 512.820312 263.910156 L 99.144531 263.910156 Z M 99.144531 197.960938 " fill-opacity="1" fill-rule="nonzero"/></g><g clip-path="url(#9201be1fdc)"><path fill="#18795b" d="M 900.71875 78.113281 L 734.800781 78.113281 C 734.195312 78.113281 733.59375 78.175781 733.003906 78.292969 C 732.410156 78.414062 731.835938 78.589844 731.277344 78.820312 C 730.71875 79.054688 730.1875 79.339844 729.683594 79.675781 C 729.183594 80.011719 728.714844 80.394531 728.289062 80.820312 C 727.863281 81.246094 727.480469 81.714844 727.144531 82.214844 C 726.808594 82.71875 726.523438 83.25 726.289062 83.808594 C 726.058594 84.367188 725.882812 84.941406 725.761719 85.535156 C 725.644531 86.125 725.582031 86.726562 725.582031 87.332031 L 725.582031 216.378906 C 725.582031 216.984375 725.644531 217.582031 725.761719 218.175781 C 725.882812 218.769531 726.058594 219.34375 726.289062 219.902344 C 726.523438 220.460938 726.808594 220.992188 727.144531 221.492188 C 727.480469 221.996094 727.863281 222.460938 728.289062 222.890625 C 728.714844 223.316406 729.183594 223.699219 729.683594 224.035156 C 730.1875 224.371094 730.71875 224.65625 731.277344 224.886719 C 731.835938 225.121094 732.410156 225.296875 733.003906 225.414062 C 733.59375 225.535156 734.195312 225.59375 734.800781 225.597656 L 762.453125 225.597656 L 762.453125 240.960938 C 762.453125 241.5625 762.515625 242.164062 762.632812 242.757812 C 762.753906 243.347656 762.929688 243.925781 763.160156 244.484375 C 763.394531 245.042969 763.679688 245.570312 764.015625 246.074219 C 764.351562 246.578125 764.734375 247.042969 765.160156 247.46875 C 765.585938 247.898438 766.054688 248.277344 766.554688 248.617188 C 767.058594 248.953125 767.589844 249.234375 768.148438 249.46875 C 768.707031 249.699219 769.28125 249.875 769.875 249.996094 C 770.464844 250.113281 771.066406 250.175781 771.671875 250.175781 L 856.78125 250.175781 L 874.449219 261.945312 C 874.917969 262.253906 875.4375 262.421875 876 262.449219 C 876.5625 262.472656 877.089844 262.355469 877.589844 262.089844 C 878.085938 261.820312 878.480469 261.449219 878.769531 260.964844 C 879.0625 260.480469 879.207031 259.957031 879.210938 259.394531 L 879.210938 250.175781 L 888.429688 250.175781 C 889.03125 250.175781 889.632812 250.113281 890.226562 249.996094 C 890.816406 249.875 891.394531 249.699219 891.953125 249.46875 C 892.511719 249.234375 893.039062 248.953125 893.542969 248.617188 C 894.046875 248.277344 894.511719 247.898438 894.9375 247.46875 C 895.367188 247.042969 895.746094 246.578125 896.085938 246.074219 C 896.421875 245.570312 896.703125 245.042969 896.9375 244.484375 C 897.167969 243.925781 897.34375 243.347656 897.464844 242.757812 C 897.582031 242.164062 897.644531 241.5625 897.644531 240.960938 L 897.644531 225.597656 L 900.71875 225.597656 C 901.324219 225.59375 901.921875 225.535156 902.515625 225.414062 C 903.109375 225.296875 903.683594 225.121094 904.242188 224.886719 C 904.800781 224.65625 905.332031 224.371094 905.832031 224.035156 C 906.335938 223.699219 906.800781 223.316406 907.230469 222.890625 C 907.65625 222.460938 908.039062 221.996094 908.375 221.492188 C 908.710938 220.992188 908.996094 220.460938 909.226562 219.902344 C 909.460938 219.34375 909.636719 218.769531 909.753906 218.175781 C 909.875 217.582031 909.933594 216.984375 909.9375 216.378906 L 909.9375 87.332031 C 909.933594 86.726562 909.875 86.125 909.753906 85.535156 C 909.636719 84.941406 909.460938 84.367188 909.226562 83.808594 C 908.996094 83.25 908.710938 82.71875 908.375 82.214844 C 908.039062 81.714844 907.65625 81.246094 907.230469 80.820312 C 906.800781 80.394531 906.335938 80.011719 905.832031 79.675781 C 905.332031 79.339844 904.800781 79.054688 904.242188 78.820312 C 903.683594 78.589844 903.109375 78.414062 902.515625 78.292969 C 901.921875 78.175781 901.324219 78.113281 900.71875 78.113281 Z M 891.5 240.960938 C 891.5 241.367188 891.421875 241.757812 891.265625 242.136719 C 891.109375 242.511719 890.890625 242.84375 890.601562 243.132812 C 890.3125 243.421875 889.980469 243.640625 889.605469 243.796875 C 889.226562 243.953125 888.835938 244.03125 888.429688 244.03125 L 876.136719 244.03125 C 875.730469 244.03125 875.339844 244.109375 874.960938 244.265625 C 874.585938 244.421875 874.253906 244.644531 873.964844 244.933594 C 873.675781 245.21875 873.457031 245.550781 873.300781 245.929688 C 873.144531 246.304688 873.066406 246.699219 873.066406 247.105469 L 873.066406 253.648438 L 859.390625 244.554688 C 858.882812 244.203125 858.320312 244.03125 857.703125 244.03125 L 771.671875 244.03125 C 771.261719 244.03125 770.871094 243.953125 770.492188 243.796875 C 770.117188 243.640625 769.785156 243.421875 769.496094 243.132812 C 769.210938 242.84375 768.988281 242.511719 768.832031 242.136719 C 768.675781 241.757812 768.597656 241.367188 768.597656 240.960938 L 768.597656 204.089844 C 768.597656 203.679688 768.675781 203.289062 768.832031 202.914062 C 768.988281 202.535156 769.210938 202.203125 769.496094 201.914062 C 769.785156 201.628906 770.117188 201.40625 770.492188 201.25 C 770.871094 201.09375 771.261719 201.015625 771.671875 201.015625 L 888.429688 201.015625 C 888.835938 201.015625 889.226562 201.09375 889.605469 201.25 C 889.980469 201.40625 890.3125 201.628906 890.601562 201.914062 C 890.890625 202.203125 891.109375 202.535156 891.265625 202.914062 C 891.421875 203.289062 891.5 203.679688 891.5 204.089844 Z M 903.792969 216.378906 C 903.792969 216.785156 903.714844 217.179688 903.558594 217.554688 C 903.402344 217.929688 903.179688 218.261719 902.890625 218.550781 C 902.601562 218.839844 902.269531 219.0625 901.894531 219.21875 C 901.519531 219.375 901.125 219.453125 900.71875 219.453125 L 897.644531 219.453125 L 897.644531 204.089844 C 897.644531 203.484375 897.582031 202.886719 897.464844 202.292969 C 897.34375 201.699219 897.167969 201.125 896.9375 200.566406 C 896.703125 200.007812 896.421875 199.476562 896.085938 198.972656 C 895.746094 198.472656 895.367188 198.007812 894.9375 197.578125 C 894.511719 197.152344 894.046875 196.769531 893.542969 196.433594 C 893.039062 196.097656 892.511719 195.8125 891.953125 195.578125 C 891.394531 195.347656 890.816406 195.171875 890.226562 195.050781 C 889.632812 194.933594 889.03125 194.871094 888.429688 194.871094 L 771.671875 194.871094 C 771.066406 194.871094 770.464844 194.933594 769.875 195.050781 C 769.28125 195.171875 768.707031 195.347656 768.148438 195.578125 C 767.589844 195.8125 767.058594 196.097656 766.554688 196.433594 C 766.054688 196.769531 765.585938 197.152344 765.160156 197.578125 C 764.734375 198.007812 764.351562 198.472656 764.015625 198.972656 C 763.679688 199.476562 763.394531 200.007812 763.160156 200.566406 C 762.929688 201.125 762.753906 201.699219 762.632812 202.292969 C 762.515625 202.886719 762.453125 203.484375 762.453125 204.089844 L 762.453125 219.453125 L 734.800781 219.453125 C 734.390625 219.453125 734 219.375 733.621094 219.21875 C 733.246094 219.0625 732.914062 218.839844 732.625 218.550781 C 732.339844 218.261719 732.117188 217.929688 731.960938 217.554688 C 731.804688 217.179688 731.726562 216.785156 731.726562 216.378906 L 731.726562 108.839844 L 903.792969 108.839844 Z M 903.792969 102.691406 L 731.726562 102.691406 L 731.726562 87.332031 C 731.726562 86.921875 731.804688 86.53125 731.960938 86.152344 C 732.117188 85.777344 732.339844 85.445312 732.625 85.15625 C 732.914062 84.871094 733.246094 84.648438 733.621094 84.492188 C 734 84.335938 734.390625 84.257812 734.800781 84.257812 L 900.71875 84.257812 C 901.125 84.257812 901.519531 84.335938 901.894531 84.492188 C 902.269531 84.648438 902.601562 84.871094 902.890625 85.15625 C 903.179688 85.445312 903.402344 85.777344 903.558594 86.152344 C 903.714844 86.53125 903.792969 86.921875 903.792969 87.332031 Z M 903.792969 102.691406 " fill-opacity="1" fill-rule="nonzero"/></g><path fill="#18795b" d="M 744.015625 90.402344 L 740.945312 90.402344 C 740.535156 90.402344 740.144531 90.480469 739.769531 90.636719 C 739.390625 90.792969 739.058594 91.015625 738.769531 91.300781 C 738.484375 91.589844 738.261719 91.921875 738.105469 92.300781 C 737.949219 92.675781 737.871094 93.066406 737.871094 93.476562 C 737.871094 93.882812 737.949219 94.273438 738.105469 94.652344 C 738.261719 95.027344 738.484375 95.359375 738.769531 95.648438 C 739.058594 95.9375 739.390625 96.15625 739.769531 96.3125 C 740.144531 96.46875 740.535156 96.546875 740.945312 96.546875 L 744.015625 96.546875 C 744.425781 96.546875 744.816406 96.46875 745.191406 96.3125 C 745.570312 96.15625 745.902344 95.9375 746.1875 95.648438 C 746.476562 95.359375 746.699219 95.027344 746.855469 94.652344 C 747.011719 94.273438 747.089844 93.882812 747.089844 93.476562 C 747.089844 93.066406 747.011719 92.675781 746.855469 92.300781 C 746.699219 91.921875 746.476562 91.589844 746.1875 91.300781 C 745.902344 91.015625 745.570312 90.792969 745.191406 90.636719 C 744.816406 90.480469 744.425781 90.402344 744.015625 90.402344 Z M 744.015625 90.402344 " fill-opacity="1" fill-rule="nonzero"/><path fill="#18795b" d="M 756.308594 90.402344 L 753.234375 90.402344 C 752.828125 90.402344 752.433594 90.480469 752.058594 90.636719 C 751.683594 90.792969 751.351562 91.015625 751.0625 91.300781 C 750.773438 91.589844 750.550781 91.921875 750.394531 92.300781 C 750.238281 92.675781 750.160156 93.066406 750.160156 93.476562 C 750.160156 93.882812 750.238281 94.273438 750.394531 94.652344 C 750.550781 95.027344 750.773438 95.359375 751.0625 95.648438 C 751.351562 95.9375 751.683594 96.15625 752.058594 96.3125 C 752.433594 96.46875 752.828125 96.546875 753.234375 96.546875 L 756.308594 96.546875 C 756.714844 96.546875 757.105469 96.46875 757.484375 96.3125 C 757.859375 96.15625 758.191406 95.9375 758.480469 95.648438 C 758.769531 95.359375 758.988281 95.027344 759.144531 94.652344 C 759.300781 94.273438 759.378906 93.882812 759.378906 93.476562 C 759.378906 93.066406 759.300781 92.675781 759.144531 92.300781 C 758.988281 91.921875 758.769531 91.589844 758.480469 91.300781 C 758.191406 91.015625 757.859375 90.792969 757.484375 90.636719 C 757.105469 90.480469 756.714844 90.402344 756.308594 90.402344 Z M 756.308594 90.402344 " fill-opacity="1" fill-rule="nonzero"/><path fill="#18795b" d="M 768.597656 90.402344 L 765.523438 90.402344 C 765.117188 90.402344 764.726562 90.480469 764.347656 90.636719 C 763.972656 90.792969 763.640625 91.015625 763.351562 91.300781 C 763.0625 91.589844 762.84375 91.921875 762.6875 92.300781 C 762.53125 92.675781 762.453125 93.066406 762.453125 93.476562 C 762.453125 93.882812 762.53125 94.273438 762.6875 94.652344 C 762.84375 95.027344 763.0625 95.359375 763.351562 95.648438 C 763.640625 95.9375 763.972656 96.15625 764.347656 96.3125 C 764.726562 96.46875 765.117188 96.546875 765.523438 96.546875 L 768.597656 96.546875 C 769.003906 96.546875 769.398438 96.46875 769.773438 96.3125 C 770.148438 96.15625 770.480469 95.9375 770.769531 95.648438 C 771.058594 95.359375 771.28125 95.027344 771.4375 94.652344 C 771.59375 94.273438 771.671875 93.882812 771.671875 93.476562 C 771.671875 93.066406 771.59375 92.675781 771.4375 92.300781 C 771.28125 91.921875 771.058594 91.589844 770.769531 91.300781 C 770.480469 91.015625 770.148438 90.792969 769.773438 90.636719 C 769.398438 90.480469 769.003906 90.402344 768.597656 90.402344 Z M 768.597656 90.402344 " fill-opacity="1" fill-rule="nonzero"/><path fill="#18795b" d="M 894.574219 90.402344 L 787.03125 90.402344 C 786.625 90.402344 786.234375 90.480469 785.855469 90.636719 C 785.480469 90.792969 785.148438 91.015625 784.859375 91.300781 C 784.570312 91.589844 784.351562 91.921875 784.195312 92.300781 C 784.039062 92.675781 783.960938 93.066406 783.960938 93.476562 C 783.960938 93.882812 784.039062 94.273438 784.195312 94.652344 C 784.351562 95.027344 784.570312 95.359375 784.859375 95.648438 C 785.148438 95.9375 785.480469 96.15625 785.855469 96.3125 C 786.234375 96.46875 786.625 96.546875 787.03125 96.546875 L 894.574219 96.546875 C 894.980469 96.546875 895.371094 96.46875 895.75 96.3125 C 896.125 96.15625 896.457031 95.9375 896.746094 95.648438 C 897.035156 95.359375 897.257812 95.027344 897.414062 94.652344 C 897.566406 94.273438 897.644531 93.882812 897.644531 93.476562 C 897.644531 93.066406 897.566406 92.675781 897.414062 92.300781 C 897.257812 91.921875 897.035156 91.589844 896.746094 91.300781 C 896.457031 91.015625 896.125 90.792969 895.75 90.636719 C 895.371094 90.480469 894.980469 90.402344 894.574219 90.402344 Z M 894.574219 90.402344 " fill-opacity="1" fill-rule="nonzero"/><path fill="#18795b" d="M 768.597656 164.144531 C 769.953125 164.140625 771.269531 163.914062 772.546875 163.46875 C 773.828125 163.023438 775 162.382812 776.0625 161.546875 L 779.183594 163.628906 C 779.519531 163.855469 779.890625 164.007812 780.289062 164.085938 C 780.691406 164.167969 781.089844 164.167969 781.488281 164.085938 C 781.890625 164.007812 782.257812 163.855469 782.597656 163.628906 C 782.9375 163.402344 783.21875 163.117188 783.445312 162.777344 C 783.671875 162.4375 783.824219 162.070312 783.902344 161.667969 C 783.984375 161.269531 783.980469 160.871094 783.902344 160.46875 C 783.824219 160.070312 783.667969 159.703125 783.441406 159.363281 C 783.214844 159.023438 782.933594 158.742188 782.59375 158.515625 L 779.878906 156.710938 C 780.550781 155.160156 780.886719 153.542969 780.886719 151.855469 L 780.886719 145.710938 C 780.886719 144.902344 780.808594 144.101562 780.652344 143.3125 C 780.492188 142.519531 780.261719 141.75 779.953125 141.007812 C 779.644531 140.261719 779.265625 139.550781 778.816406 138.882812 C 778.367188 138.210938 777.859375 137.589844 777.289062 137.019531 C 776.71875 136.449219 776.097656 135.9375 775.425781 135.492188 C 774.753906 135.042969 774.046875 134.664062 773.300781 134.355469 C 772.554688 134.046875 771.785156 133.8125 770.996094 133.65625 C 770.203125 133.496094 769.40625 133.417969 768.597656 133.417969 C 767.789062 133.417969 766.992188 133.496094 766.199219 133.65625 C 765.40625 133.8125 764.640625 134.046875 763.894531 134.355469 C 763.148438 134.664062 762.441406 135.042969 761.769531 135.492188 C 761.097656 135.9375 760.476562 136.449219 759.90625 137.019531 C 759.335938 137.589844 758.828125 138.210938 758.378906 138.882812 C 757.929688 139.550781 757.550781 140.261719 757.242188 141.007812 C 756.933594 141.75 756.699219 142.519531 756.542969 143.3125 C 756.386719 144.101562 756.308594 144.902344 756.308594 145.710938 L 756.308594 151.855469 C 756.308594 152.660156 756.386719 153.460938 756.542969 154.253906 C 756.699219 155.042969 756.933594 155.8125 757.242188 156.558594 C 757.550781 157.304688 757.929688 158.011719 758.378906 158.683594 C 758.828125 159.355469 759.335938 159.972656 759.90625 160.546875 C 760.476562 161.117188 761.097656 161.625 761.769531 162.074219 C 762.441406 162.523438 763.148438 162.902344 763.894531 163.210938 C 764.640625 163.519531 765.40625 163.75 766.199219 163.910156 C 766.992188 164.066406 767.789062 164.144531 768.597656 164.144531 Z M 762.453125 145.710938 C 762.453125 145.304688 762.492188 144.90625 762.570312 144.511719 C 762.648438 144.113281 762.765625 143.730469 762.921875 143.359375 C 763.074219 142.984375 763.261719 142.628906 763.488281 142.296875 C 763.710938 141.960938 763.964844 141.648438 764.253906 141.363281 C 764.539062 141.078125 764.847656 140.824219 765.183594 140.601562 C 765.519531 140.375 765.871094 140.1875 766.246094 140.03125 C 766.617188 139.878906 767.003906 139.761719 767.398438 139.683594 C 767.792969 139.601562 768.195312 139.5625 768.597656 139.5625 C 769 139.5625 769.402344 139.601562 769.796875 139.683594 C 770.191406 139.761719 770.578125 139.878906 770.949219 140.03125 C 771.320312 140.1875 771.675781 140.375 772.011719 140.601562 C 772.347656 140.824219 772.65625 141.078125 772.941406 141.363281 C 773.226562 141.648438 773.484375 141.960938 773.707031 142.296875 C 773.929688 142.628906 774.121094 142.984375 774.273438 143.359375 C 774.429688 143.730469 774.546875 144.113281 774.625 144.511719 C 774.703125 144.90625 774.742188 145.304688 774.742188 145.710938 L 774.742188 151.855469 C 774.738281 152.300781 774.6875 152.746094 774.589844 153.183594 L 773.375 152.371094 C 773.035156 152.144531 772.667969 151.992188 772.265625 151.914062 C 771.867188 151.835938 771.46875 151.835938 771.070312 151.914062 C 770.667969 151.996094 770.300781 152.148438 769.960938 152.375 C 769.625 152.601562 769.339844 152.882812 769.113281 153.222656 C 768.890625 153.5625 768.734375 153.929688 768.65625 154.332031 C 768.578125 154.730469 768.578125 155.128906 768.65625 155.527344 C 768.738281 155.929688 768.890625 156.296875 769.117188 156.636719 C 769.34375 156.976562 769.625 157.257812 769.964844 157.484375 L 770.324219 157.722656 C 769.761719 157.898438 769.1875 157.992188 768.597656 158 C 768.195312 158 767.792969 157.960938 767.398438 157.882812 C 767.003906 157.804688 766.617188 157.6875 766.246094 157.53125 C 765.871094 157.378906 765.519531 157.1875 765.183594 156.964844 C 764.847656 156.738281 764.539062 156.484375 764.253906 156.199219 C 763.964844 155.914062 763.710938 155.605469 763.488281 155.269531 C 763.261719 154.933594 763.074219 154.578125 762.921875 154.207031 C 762.765625 153.832031 762.648438 153.449219 762.570312 153.054688 C 762.492188 152.65625 762.453125 152.257812 762.453125 151.855469 Z M 762.453125 145.710938 " fill-opacity="1" fill-rule="nonzero"/><path fill="#18795b" d="M 787.03125 207.160156 C 786.226562 207.160156 785.425781 207.238281 784.636719 207.398438 C 783.84375 207.554688 783.074219 207.789062 782.328125 208.097656 C 781.585938 208.40625 780.875 208.785156 780.203125 209.230469 C 779.535156 209.679688 778.914062 210.191406 778.34375 210.761719 C 777.773438 211.332031 777.261719 211.953125 776.8125 212.625 C 776.367188 213.292969 775.988281 214.003906 775.679688 214.75 C 775.371094 215.492188 775.136719 216.261719 774.980469 217.054688 C 774.820312 217.84375 774.742188 218.644531 774.742188 219.453125 L 774.742188 234.8125 C 774.742188 235.222656 774.820312 235.613281 774.976562 235.988281 C 775.132812 236.367188 775.355469 236.699219 775.640625 236.988281 C 775.929688 237.273438 776.261719 237.496094 776.640625 237.652344 C 777.015625 237.808594 777.40625 237.886719 777.816406 237.886719 C 778.222656 237.886719 778.613281 237.808594 778.992188 237.652344 C 779.367188 237.496094 779.699219 237.273438 779.988281 236.988281 C 780.277344 236.699219 780.496094 236.367188 780.652344 235.988281 C 780.808594 235.613281 780.886719 235.222656 780.886719 234.8125 L 780.886719 228.667969 L 793.179688 228.667969 L 793.179688 234.8125 C 793.179688 235.222656 793.257812 235.613281 793.410156 235.988281 C 793.566406 236.367188 793.789062 236.699219 794.078125 236.988281 C 794.367188 237.273438 794.699219 237.496094 795.074219 237.652344 C 795.453125 237.808594 795.84375 237.886719 796.25 237.886719 C 796.65625 237.886719 797.050781 237.808594 797.425781 237.652344 C 797.804688 237.496094 798.136719 237.273438 798.421875 236.988281 C 798.710938 236.699219 798.933594 236.367188 799.089844 235.988281 C 799.246094 235.613281 799.324219 235.222656 799.324219 234.8125 L 799.324219 219.453125 C 799.324219 218.644531 799.246094 217.84375 799.085938 217.054688 C 798.929688 216.261719 798.695312 215.492188 798.386719 214.75 C 798.078125 214.003906 797.699219 213.292969 797.25 212.625 C 796.804688 211.953125 796.292969 211.332031 795.722656 210.761719 C 795.152344 210.191406 794.53125 209.679688 793.859375 209.230469 C 793.191406 208.785156 792.480469 208.40625 791.734375 208.097656 C 790.992188 207.789062 790.222656 207.554688 789.429688 207.398438 C 788.640625 207.238281 787.839844 207.160156 787.03125 207.160156 Z M 780.886719 222.523438 L 780.886719 219.453125 C 780.886719 219.046875 780.925781 218.648438 781.003906 218.253906 C 781.085938 217.855469 781.199219 217.472656 781.355469 217.101562 C 781.511719 216.726562 781.699219 216.371094 781.921875 216.039062 C 782.148438 215.703125 782.402344 215.390625 782.6875 215.105469 C 782.972656 214.820312 783.285156 214.566406 783.617188 214.34375 C 783.953125 214.117188 784.308594 213.929688 784.679688 213.773438 C 785.054688 213.621094 785.4375 213.503906 785.835938 213.425781 C 786.230469 213.34375 786.628906 213.304688 787.03125 213.304688 C 787.4375 213.304688 787.835938 213.34375 788.230469 213.425781 C 788.628906 213.503906 789.011719 213.621094 789.382812 213.773438 C 789.757812 213.929688 790.113281 214.117188 790.445312 214.34375 C 790.78125 214.566406 791.09375 214.820312 791.378906 215.105469 C 791.664062 215.390625 791.917969 215.703125 792.140625 216.039062 C 792.367188 216.371094 792.554688 216.726562 792.710938 217.101562 C 792.863281 217.472656 792.980469 217.855469 793.058594 218.253906 C 793.140625 218.648438 793.179688 219.046875 793.179688 219.453125 L 793.179688 222.523438 Z M 780.886719 222.523438 " fill-opacity="1" fill-rule="nonzero"/><path fill="#18795b" d="M 753.234375 176.433594 L 762.453125 176.433594 L 762.453125 185.652344 C 762.453125 186.21875 762.597656 186.746094 762.890625 187.230469 C 763.179688 187.71875 763.574219 188.09375 764.074219 188.363281 C 764.574219 188.628906 765.109375 188.75 765.675781 188.722656 C 766.238281 188.695312 766.757812 188.523438 767.230469 188.210938 L 784.882812 176.433594 L 869.992188 176.433594 C 870.597656 176.433594 871.199219 176.375 871.792969 176.257812 C 872.382812 176.140625 872.960938 175.964844 873.519531 175.734375 C 874.078125 175.5 874.609375 175.21875 875.113281 174.882812 C 875.617188 174.546875 876.082031 174.164062 876.511719 173.734375 C 876.9375 173.308594 877.320312 172.839844 877.65625 172.339844 C 877.992188 171.835938 878.277344 171.304688 878.507812 170.746094 C 878.742188 170.1875 878.914062 169.609375 879.035156 169.015625 C 879.152344 168.421875 879.210938 167.824219 879.210938 167.21875 L 879.210938 130.347656 C 879.210938 129.742188 879.152344 129.140625 879.035156 128.546875 C 878.914062 127.953125 878.742188 127.378906 878.507812 126.820312 C 878.277344 126.257812 877.992188 125.726562 877.65625 125.226562 C 877.320312 124.722656 876.9375 124.257812 876.511719 123.828125 C 876.082031 123.402344 875.617188 123.019531 875.113281 122.683594 C 874.609375 122.347656 874.078125 122.0625 873.519531 121.832031 C 872.960938 121.597656 872.382812 121.421875 871.792969 121.304688 C 871.199219 121.1875 870.597656 121.128906 869.992188 121.128906 L 753.234375 121.128906 C 752.628906 121.128906 752.03125 121.1875 751.4375 121.304688 C 750.84375 121.421875 750.265625 121.597656 749.707031 121.832031 C 749.148438 122.0625 748.617188 122.347656 748.113281 122.683594 C 747.609375 123.019531 747.144531 123.402344 746.714844 123.828125 C 746.289062 124.257812 745.90625 124.722656 745.570312 125.226562 C 745.234375 125.726562 744.949219 126.257812 744.71875 126.820312 C 744.488281 127.378906 744.3125 127.953125 744.195312 128.546875 C 744.074219 129.140625 744.015625 129.742188 744.015625 130.347656 L 744.015625 167.21875 C 744.015625 167.824219 744.074219 168.421875 744.195312 169.015625 C 744.3125 169.609375 744.488281 170.1875 744.71875 170.746094 C 744.949219 171.304688 745.234375 171.835938 745.570312 172.339844 C 745.90625 172.839844 746.289062 173.308594 746.714844 173.734375 C 747.144531 174.164062 747.609375 174.546875 748.113281 174.882812 C 748.617188 175.21875 749.148438 175.5 749.707031 175.734375 C 750.265625 175.964844 750.84375 176.140625 751.4375 176.257812 C 752.03125 176.375 752.628906 176.433594 753.234375 176.433594 Z M 750.160156 130.347656 C 750.160156 129.9375 750.238281 129.546875 750.394531 129.171875 C 750.550781 128.792969 750.773438 128.460938 751.0625 128.171875 C 751.351562 127.886719 751.683594 127.664062 752.058594 127.507812 C 752.433594 127.351562 752.828125 127.273438 753.234375 127.273438 L 869.992188 127.273438 C 870.398438 127.273438 870.792969 127.351562 871.167969 127.507812 C 871.546875 127.664062 871.878906 127.886719 872.164062 128.171875 C 872.453125 128.460938 872.675781 128.792969 872.832031 129.171875 C 872.988281 129.546875 873.066406 129.9375 873.066406 130.347656 L 873.066406 167.21875 C 873.066406 167.625 872.988281 168.015625 872.832031 168.394531 C 872.675781 168.769531 872.453125 169.101562 872.164062 169.390625 C 871.878906 169.679688 871.546875 169.898438 871.167969 170.054688 C 870.792969 170.210938 870.398438 170.289062 869.992188 170.289062 L 783.960938 170.289062 C 783.339844 170.292969 782.773438 170.464844 782.253906 170.804688 L 768.597656 179.910156 L 768.597656 173.363281 C 768.597656 172.957031 768.519531 172.5625 768.363281 172.1875 C 768.207031 171.808594 767.984375 171.476562 767.699219 171.191406 C 767.410156 170.902344 767.078125 170.679688 766.699219 170.523438 C 766.324219 170.367188 765.933594 170.289062 765.523438 170.289062 L 753.234375 170.289062 C 752.828125 170.289062 752.433594 170.210938 752.058594 170.054688 C 751.683594 169.898438 751.351562 169.679688 751.0625 169.390625 C 750.773438 169.101562 750.550781 168.769531 750.394531 168.394531 C 750.238281 168.015625 750.160156 167.625 750.160156 167.21875 Z M 750.160156 130.347656 " fill-opacity="1" fill-rule="nonzero"/><path fill="#18795b" d="M 796.25 139.5625 L 857.703125 139.5625 C 858.109375 139.5625 858.5 139.484375 858.878906 139.332031 C 859.253906 139.175781 859.585938 138.953125 859.875 138.664062 C 860.164062 138.375 860.386719 138.042969 860.542969 137.667969 C 860.695312 137.289062 860.773438 136.898438 860.773438 136.492188 C 860.773438 136.085938 860.695312 135.691406 860.542969 135.316406 C 860.386719 134.9375 860.164062 134.605469 859.875 134.320312 C 859.585938 134.03125 859.253906 133.808594 858.878906 133.652344 C 858.5 133.496094 858.109375 133.417969 857.703125 133.417969 L 796.25 133.417969 C 795.84375 133.417969 795.453125 133.496094 795.074219 133.652344 C 794.699219 133.808594 794.367188 134.03125 794.078125 134.320312 C 793.789062 134.605469 793.566406 134.9375 793.410156 135.316406 C 793.257812 135.691406 793.179688 136.085938 793.179688 136.492188 C 793.179688 136.898438 793.257812 137.289062 793.410156 137.667969 C 793.566406 138.042969 793.789062 138.375 794.078125 138.664062 C 794.367188 138.953125 794.699219 139.175781 795.074219 139.332031 C 795.453125 139.484375 795.84375 139.5625 796.25 139.5625 Z M 796.25 139.5625 " fill-opacity="1" fill-rule="nonzero"/><path fill="#18795b" d="M 796.25 151.855469 L 857.703125 151.855469 C 858.109375 151.855469 858.5 151.777344 858.878906 151.621094 C 859.253906 151.464844 859.585938 151.242188 859.875 150.953125 C 860.164062 150.667969 860.386719 150.335938 860.542969 149.957031 C 860.695312 149.582031 860.773438 149.1875 860.773438 148.78125 C 860.773438 148.375 860.695312 147.984375 860.542969 147.605469 C 860.386719 147.230469 860.164062 146.898438 859.875 146.609375 C 859.585938 146.320312 859.253906 146.097656 858.878906 145.941406 C 858.5 145.789062 858.109375 145.710938 857.703125 145.710938 L 796.25 145.710938 C 795.84375 145.710938 795.453125 145.789062 795.074219 145.941406 C 794.699219 146.097656 794.367188 146.320312 794.078125 146.609375 C 793.789062 146.898438 793.566406 147.230469 793.410156 147.605469 C 793.257812 147.984375 793.179688 148.375 793.179688 148.78125 C 793.179688 149.1875 793.257812 149.582031 793.410156 149.957031 C 793.566406 150.335938 793.789062 150.667969 794.078125 150.953125 C 794.367188 151.242188 794.699219 151.464844 795.074219 151.621094 C 795.453125 151.777344 795.84375 151.855469 796.25 151.855469 Z M 796.25 151.855469 " fill-opacity="1" fill-rule="nonzero"/><path fill="#18795b" d="M 796.25 164.144531 L 826.976562 164.144531 C 827.382812 164.144531 827.777344 164.066406 828.152344 163.910156 C 828.527344 163.753906 828.859375 163.53125 829.148438 163.246094 C 829.4375 162.957031 829.660156 162.625 829.816406 162.25 C 829.972656 161.871094 830.050781 161.480469 830.050781 161.074219 C 830.050781 160.664062 829.972656 160.273438 829.816406 159.894531 C 829.660156 159.519531 829.4375 159.1875 829.148438 158.898438 C 828.859375 158.613281 828.527344 158.390625 828.152344 158.234375 C 827.777344 158.078125 827.382812 158 826.976562 158 L 796.25 158 C 795.84375 158 795.453125 158.078125 795.074219 158.234375 C 794.699219 158.390625 794.367188 158.613281 794.078125 158.898438 C 793.789062 159.1875 793.566406 159.519531 793.410156 159.894531 C 793.257812 160.273438 793.179688 160.664062 793.179688 161.074219 C 793.179688 161.480469 793.257812 161.871094 793.410156 162.25 C 793.566406 162.625 793.789062 162.957031 794.078125 163.246094 C 794.367188 163.53125 794.699219 163.753906 795.074219 163.910156 C 795.453125 164.066406 795.84375 164.144531 796.25 164.144531 Z M 796.25 164.144531 " fill-opacity="1" fill-rule="nonzero"/><path fill="#18795b" d="M 876.136719 207.160156 L 830.050781 207.160156 C 829.640625 207.160156 829.25 207.238281 828.875 207.394531 C 828.496094 207.550781 828.164062 207.773438 827.875 208.0625 C 827.589844 208.347656 827.367188 208.679688 827.210938 209.058594 C 827.054688 209.433594 826.976562 209.828125 826.976562 210.234375 C 826.976562 210.640625 827.054688 211.03125 827.210938 211.410156 C 827.367188 211.785156 827.589844 212.117188 827.875 212.40625 C 828.164062 212.695312 828.496094 212.917969 828.875 213.074219 C 829.25 213.226562 829.640625 213.304688 830.050781 213.304688 L 876.136719 213.304688 C 876.546875 213.304688 876.9375 213.226562 877.3125 213.074219 C 877.691406 212.917969 878.023438 212.695312 878.3125 212.40625 C 878.597656 212.117188 878.820312 211.785156 878.976562 211.410156 C 879.132812 211.03125 879.210938 210.640625 879.210938 210.234375 C 879.210938 209.828125 879.132812 209.433594 878.976562 209.058594 C 878.820312 208.679688 878.597656 208.347656 878.3125 208.0625 C 878.023438 207.773438 877.691406 207.550781 877.3125 207.394531 C 876.9375 207.238281 876.546875 207.160156 876.136719 207.160156 Z M 876.136719 207.160156 " fill-opacity="1" fill-rule="nonzero"/><path fill="#18795b" d="M 876.136719 219.453125 L 830.050781 219.453125 C 829.640625 219.453125 829.25 219.53125 828.875 219.683594 C 828.496094 219.839844 828.164062 220.0625 827.875 220.351562 C 827.589844 220.640625 827.367188 220.972656 827.210938 221.347656 C 827.054688 221.726562 826.976562 222.117188 826.976562 222.523438 C 826.976562 222.929688 827.054688 223.324219 827.210938 223.699219 C 827.367188 224.078125 827.589844 224.410156 827.875 224.695312 C 828.164062 224.984375 828.496094 225.207031 828.875 225.363281 C 829.25 225.519531 829.640625 225.597656 830.050781 225.597656 L 876.136719 225.597656 C 876.546875 225.597656 876.9375 225.519531 877.3125 225.363281 C 877.691406 225.207031 878.023438 224.984375 878.3125 224.695312 C 878.597656 224.410156 878.820312 224.078125 878.976562 223.699219 C 879.132812 223.324219 879.210938 222.929688 879.210938 222.523438 C 879.210938 222.117188 879.132812 221.726562 878.976562 221.347656 C 878.820312 220.972656 878.597656 220.640625 878.3125 220.351562 C 878.023438 220.0625 877.691406 219.839844 877.3125 219.683594 C 876.9375 219.53125 876.546875 219.453125 876.136719 219.453125 Z M 876.136719 219.453125 " fill-opacity="1" fill-rule="nonzero"/><path fill="#18795b" d="M 876.136719 231.742188 L 830.050781 231.742188 C 829.640625 231.742188 829.25 231.820312 828.875 231.976562 C 828.496094 232.132812 828.164062 232.355469 827.875 232.640625 C 827.589844 232.929688 827.367188 233.261719 827.210938 233.636719 C 827.054688 234.015625 826.976562 234.40625 826.976562 234.8125 C 826.976562 235.222656 827.054688 235.613281 827.210938 235.988281 C 827.367188 236.367188 827.589844 236.699219 827.875 236.988281 C 828.164062 237.273438 828.496094 237.496094 828.875 237.652344 C 829.25 237.808594 829.640625 237.886719 830.050781 237.886719 L 876.136719 237.886719 C 876.546875 237.886719 876.9375 237.808594 877.3125 237.652344 C 877.691406 237.496094 878.023438 237.273438 878.3125 236.988281 C 878.597656 236.699219 878.820312 236.367188 878.976562 235.988281 C 879.132812 235.613281 879.210938 235.222656 879.210938 234.8125 C 879.210938 234.40625 879.132812 234.015625 878.976562 233.636719 C 878.820312 233.261719 878.597656 232.929688 878.3125 232.640625 C 878.023438 232.355469 877.691406 232.132812 877.3125 231.976562 C 876.9375 231.820312 876.546875 231.742188 876.136719 231.742188 Z M 876.136719 231.742188 " fill-opacity="1" fill-rule="nonzero"/><path fill="#18795b" d="M 817.757812 207.160156 L 814.6875 207.160156 C 814.277344 207.160156 813.886719 207.238281 813.511719 207.394531 C 813.132812 207.550781 812.800781 207.773438 812.511719 208.0625 C 812.226562 208.347656 812.003906 208.679688 811.847656 209.058594 C 811.691406 209.433594 811.613281 209.828125 811.613281 210.234375 C 811.613281 210.640625 811.691406 211.03125 811.847656 211.410156 C 812.003906 211.785156 812.226562 212.117188 812.511719 212.40625 C 812.800781 212.695312 813.132812 212.917969 813.511719 213.074219 C 813.886719 213.226562 814.277344 213.304688 814.6875 213.304688 L 817.757812 213.304688 C 818.167969 213.304688 818.558594 213.226562 818.933594 213.074219 C 819.3125 212.917969 819.644531 212.695312 819.929688 212.40625 C 820.21875 212.117188 820.441406 211.785156 820.597656 211.410156 C 820.753906 211.03125 820.832031 210.640625 820.832031 210.234375 C 820.832031 209.828125 820.753906 209.433594 820.597656 209.058594 C 820.441406 208.679688 820.21875 208.347656 819.929688 208.0625 C 819.644531 207.773438 819.3125 207.550781 818.933594 207.394531 C 818.558594 207.238281 818.167969 207.160156 817.757812 207.160156 Z M 817.757812 207.160156 " fill-opacity="1" fill-rule="nonzero"/><path fill="#18795b" d="M 817.757812 219.453125 L 814.6875 219.453125 C 814.277344 219.453125 813.886719 219.53125 813.511719 219.683594 C 813.132812 219.839844 812.800781 220.0625 812.511719 220.351562 C 812.226562 220.640625 812.003906 220.972656 811.847656 221.347656 C 811.691406 221.726562 811.613281 222.117188 811.613281 222.523438 C 811.613281 222.929688 811.691406 223.324219 811.847656 223.699219 C 812.003906 224.078125 812.226562 224.410156 812.511719 224.695312 C 812.800781 224.984375 813.132812 225.207031 813.511719 225.363281 C 813.886719 225.519531 814.277344 225.597656 814.6875 225.597656 L 817.757812 225.597656 C 818.167969 225.597656 818.558594 225.519531 818.933594 225.363281 C 819.3125 225.207031 819.644531 224.984375 819.929688 224.695312 C 820.21875 224.410156 820.441406 224.078125 820.597656 223.699219 C 820.753906 223.324219 820.832031 222.929688 820.832031 222.523438 C 820.832031 222.117188 820.753906 221.726562 820.597656 221.347656 C 820.441406 220.972656 820.21875 220.640625 819.929688 220.351562 C 819.644531 220.0625 819.3125 219.839844 818.933594 219.683594 C 818.558594 219.53125 818.167969 219.453125 817.757812 219.453125 Z M 817.757812 219.453125 " fill-opacity="1" fill-rule="nonzero"/><path fill="#18795b" d="M 817.757812 231.742188 L 814.6875 231.742188 C 814.277344 231.742188 813.886719 231.820312 813.511719 231.976562 C 813.132812 232.132812 812.800781 232.355469 812.511719 232.640625 C 812.226562 232.929688 812.003906 233.261719 811.847656 233.636719 C 811.691406 234.015625 811.613281 234.40625 811.613281 234.8125 C 811.613281 235.222656 811.691406 235.613281 811.847656 235.988281 C 812.003906 236.367188 812.226562 236.699219 812.511719 236.988281 C 812.800781 237.273438 813.132812 237.496094 813.511719 237.652344 C 813.886719 237.808594 814.277344 237.886719 814.6875 237.886719 L 817.757812 237.886719 C 818.167969 237.886719 818.558594 237.808594 818.933594 237.652344 C 819.3125 237.496094 819.644531 237.273438 819.929688 236.988281 C 820.21875 236.699219 820.441406 236.367188 820.597656 235.988281 C 820.753906 235.613281 820.832031 235.222656 820.832031 234.8125 C 820.832031 234.40625 820.753906 234.015625 820.597656 233.636719 C 820.441406 233.261719 820.21875 232.929688 819.929688 232.640625 C 819.644531 232.355469 819.3125 232.132812 818.933594 231.976562 C 818.558594 231.820312 818.167969 231.742188 817.757812 231.742188 Z M 817.757812 231.742188 " fill-opacity="1" fill-rule="nonzero"/><g fill="#000000" fill-opacity="1"><g transform="translate(99.143062, 112.165632)"><g><path d="M 16.835938 -6.4375 L 18.921875 0 L 25.972656 0 L 17.015625 -24.820312 L 9.101562 -24.820312 L 0.144531 0 L 7.015625 0 L 9.101562 -6.4375 Z M 12.984375 -19.101562 L 15.289062 -11.476562 L 10.683594 -11.476562 Z M 12.984375 -19.101562 "/></g></g></g><g fill="#000000" fill-opacity="1"><g transform="translate(127.848595, 112.165632)"><g/></g></g><g fill="#000000" fill-opacity="1"><g transform="translate(137.453071, 112.165632)"><g><path d="M 11.582031 -25.324219 C 6.65625 -25.324219 2.195312 -22.625 2.195312 -17.84375 C 2.195312 -12.878906 5.503906 -11.117188 11.152344 -9.710938 C 14.207031 -8.957031 15.144531 -7.84375 15.144531 -6.546875 C 15.144531 -5.179688 13.777344 -4.246094 11.980469 -4.246094 C 10.035156 -4.246094 8.128906 -5.25 7.699219 -7.589844 L 1.222656 -7.589844 C 1.617188 -2.015625 5.863281 0.503906 12.160156 0.503906 C 17.160156 0.503906 21.90625 -2.015625 21.90625 -6.980469 C 21.90625 -10.792969 19.675781 -13.527344 14.207031 -14.820312 C 10.109375 -15.792969 8.957031 -16.761719 8.957031 -18.34375 C 8.957031 -19.855469 9.964844 -20.574219 11.4375 -20.574219 C 13.5625 -20.574219 14.640625 -19.207031 14.929688 -17.160156 L 21.402344 -17.160156 C 20.863281 -21.761719 18.128906 -25.324219 11.582031 -25.324219 Z M 11.582031 -25.324219 "/></g></g></g><g fill="#000000" fill-opacity="1"><g transform="translate(163.244892, 112.165632)"><g><path d="M 5.179688 -27.015625 C 3.164062 -27.015625 1.835938 -25.792969 1.835938 -23.847656 C 1.835938 -21.90625 3.164062 -20.683594 5.179688 -20.683594 C 7.195312 -20.683594 8.523438 -21.90625 8.523438 -23.847656 C 8.523438 -25.792969 7.195312 -27.015625 5.179688 -27.015625 Z M 8.417969 0 L 8.417969 -19.207031 L 1.941406 -19.207031 L 1.941406 0 Z M 8.417969 0 "/></g></g></g><g fill="#000000" fill-opacity="1"><g transform="translate(176.878222, 112.165632)"><g><path d="M 32.84375 -14.855469 C 32.410156 -17.480469 30.253906 -19.710938 26.402344 -19.710938 C 24.640625 -19.710938 23.453125 -19.316406 22.265625 -18.597656 L 20.253906 -15.972656 C 19.425781 -18.09375 17.375 -19.710938 14.101562 -19.710938 C 12.339844 -19.710938 11.152344 -19.316406 9.964844 -18.597656 L 8.417969 -16.117188 L 8.417969 -19.207031 L 1.941406 -19.207031 L 1.941406 0 L 8.417969 0 L 8.417969 -10.144531 C 8.417969 -13.417969 9.246094 -15.324219 11.332031 -15.324219 C 13.023438 -15.324219 13.886719 -14.246094 14.101562 -12.410156 C 14.207031 -11.4375 14.246094 -10.394531 14.246094 -9.785156 L 14.246094 0 L 20.71875 0 L 20.71875 -10.144531 C 20.71875 -13.417969 21.546875 -15.324219 23.632812 -15.324219 C 25.324219 -15.324219 26.1875 -14.246094 26.402344 -12.410156 C 26.511719 -11.4375 26.546875 -10.394531 26.546875 -9.785156 L 26.546875 0 L 33.023438 0 L 33.023438 -11.222656 C 33.023438 -12.769531 32.984375 -13.886719 32.84375 -14.855469 Z M 32.84375 -14.855469 "/></g></g></g><g fill="#000000" fill-opacity="1"><g transform="translate(214.900461, 112.165632)"><g><path d="M 14.75 -19.710938 C 12.804688 -19.710938 10.933594 -19.316406 9.855469 -18.527344 L 8.417969 -16.402344 L 8.417969 -19.207031 L 1.941406 -19.207031 L 1.941406 7.050781 L 8.417969 7.050781 L 8.417969 -2.480469 L 9.675781 -0.433594 C 10.648438 0.144531 12.519531 0.503906 14.101562 0.503906 C 19.027344 0.503906 23.203125 -3.203125 23.203125 -10.035156 C 23.203125 -15.71875 19.964844 -19.710938 14.75 -19.710938 Z M 12.339844 -3.886719 C 10.394531 -3.886719 8.417969 -5.179688 8.417969 -9.027344 L 8.417969 -9.855469 C 8.417969 -13.886719 10.144531 -15.324219 12.519531 -15.324219 C 14.785156 -15.324219 16.582031 -13.308594 16.582031 -9.710938 C 16.582031 -5.792969 14.855469 -3.886719 12.339844 -3.886719 Z M 12.339844 -3.886719 "/></g></g></g><g fill="#000000" fill-opacity="1"><g transform="translate(242.239059, 112.165632)"><g><path d="M 8.273438 -26.4375 L 1.796875 -26.4375 L 1.796875 -6.796875 C 1.796875 -5.359375 1.796875 -4.386719 1.871094 -3.382812 C 2.015625 -0.828125 3.707031 0.359375 6.691406 0.359375 C 8.128906 0.359375 9.28125 0.289062 10.46875 0.179688 L 10.46875 -4.207031 C 8.777344 -4.136719 8.453125 -4.386719 8.34375 -5.144531 C 8.273438 -5.613281 8.273438 -6.007812 8.273438 -6.90625 Z M 8.273438 -26.4375 "/></g></g></g><g fill="#000000" fill-opacity="1"><g transform="translate(256.483905, 112.165632)"><g><path d="M 20.753906 -9.855469 C 20.753906 -14.820312 17.519531 -19.710938 11.117188 -19.710938 C 4.710938 -19.710938 0.863281 -15.144531 0.863281 -9.53125 C 0.863281 -2.769531 5.25 0.503906 10.753906 0.503906 C 15.683594 0.503906 19.28125 -1.941406 20.394531 -6.296875 L 14.027344 -6.296875 C 13.777344 -4.820312 12.660156 -3.886719 10.828125 -3.886719 C 8.992188 -3.886719 7.589844 -4.785156 7.265625 -7.984375 L 20.648438 -7.984375 C 20.71875 -8.632812 20.753906 -9.28125 20.753906 -9.855469 Z M 10.792969 -15.324219 C 12.519531 -15.324219 13.632812 -14.207031 13.992188 -11.941406 L 7.480469 -11.941406 C 7.914062 -14.316406 9.101562 -15.324219 10.792969 -15.324219 Z M 10.792969 -15.324219 "/></g></g></g><g fill="#000000" fill-opacity="1"><g transform="translate(281.376416, 112.165632)"><g/></g></g><g fill="#000000" fill-opacity="1"><g transform="translate(290.98089, 112.165632)"><g><path d="M 24.171875 -4.570312 C 26.296875 -6.546875 27.339844 -9.386719 27.339844 -12.410156 C 27.339844 -20.394531 22.375 -25.359375 14.640625 -25.359375 C 6.90625 -25.359375 1.941406 -20.394531 1.941406 -12.410156 C 1.941406 -4.460938 6.90625 0.503906 14.640625 0.503906 C 15.574219 0.503906 16.402344 0.433594 17.195312 0.25 C 18.203125 0.0351562 18.8125 -0.0703125 19.820312 -0.0703125 C 21.511719 -0.0703125 22.625 0.324219 24.929688 1.726562 L 28.023438 -2.375 C 26.691406 -3.488281 25.503906 -4.171875 24.171875 -4.570312 Z M 8.5625 -12.410156 C 8.5625 -17.699219 10.898438 -20.613281 14.640625 -20.613281 C 18.382812 -20.613281 20.71875 -17.699219 20.71875 -12.410156 C 20.71875 -7.160156 18.382812 -4.246094 14.640625 -4.246094 C 10.898438 -4.246094 8.5625 -7.160156 8.5625 -12.410156 Z M 8.5625 -12.410156 "/></g></g></g><g fill="#000000" fill-opacity="1"><g transform="translate(322.708071, 112.165632)"><g><path d="M 16.835938 -6.4375 L 18.921875 0 L 25.972656 0 L 17.015625 -24.820312 L 9.101562 -24.820312 L 0.144531 0 L 7.015625 0 L 9.101562 -6.4375 Z M 12.984375 -19.101562 L 15.289062 -11.476562 L 10.683594 -11.476562 Z M 12.984375 -19.101562 "/></g></g></g><g fill="#000000" fill-opacity="1"><g transform="translate(351.413612, 112.165632)"><g/></g></g><g fill="#000000" fill-opacity="1"><g transform="translate(361.018085, 112.165632)"><g><path d="M 11.582031 -25.324219 C 6.65625 -25.324219 2.195312 -22.625 2.195312 -17.84375 C 2.195312 -12.878906 5.503906 -11.117188 11.152344 -9.710938 C 14.207031 -8.957031 15.144531 -7.84375 15.144531 -6.546875 C 15.144531 -5.179688 13.777344 -4.246094 11.980469 -4.246094 C 10.035156 -4.246094 8.128906 -5.25 7.699219 -7.589844 L 1.222656 -7.589844 C 1.617188 -2.015625 5.863281 0.503906 12.160156 0.503906 C 17.160156 0.503906 21.90625 -2.015625 21.90625 -6.980469 C 21.90625 -10.792969 19.675781 -13.527344 14.207031 -14.820312 C 10.109375 -15.792969 8.957031 -16.761719 8.957031 -18.34375 C 8.957031 -19.855469 9.964844 -20.574219 11.4375 -20.574219 C 13.5625 -20.574219 14.640625 -19.207031 14.929688 -17.160156 L 21.402344 -17.160156 C 20.863281 -21.761719 18.128906 -25.324219 11.582031 -25.324219 Z M 11.582031 -25.324219 "/></g></g></g><g fill="#000000" fill-opacity="1"><g transform="translate(386.809912, 112.165632)"><g><path d="M 22.160156 -19.207031 L 15.070312 -19.207031 L 11.152344 -5.144531 L 7.195312 -19.207031 L 0 -19.207031 L 7.949219 0.863281 L 7.699219 1.402344 C 7.085938 2.769531 6.042969 3.273438 4.53125 3.273438 C 3.886719 3.273438 3.308594 3.273438 2.769531 3.203125 L 2.769531 7.375 C 3.707031 7.519531 4.460938 7.554688 5.503906 7.554688 C 10.070312 7.554688 12.160156 6.078125 14.570312 0 Z M 22.160156 -19.207031 "/></g></g></g><g fill="#000000" fill-opacity="1"><g transform="translate(411.954236, 112.165632)"><g><path d="M 9.855469 -19.710938 C 4.75 -19.710938 1.4375 -17.339844 1.4375 -13.527344 C 1.4375 -10.253906 3.632812 -8.5625 7.300781 -7.699219 C 10.71875 -6.90625 11.941406 -6.222656 11.941406 -5 C 11.941406 -3.992188 11.042969 -3.523438 9.890625 -3.523438 C 8.523438 -3.523438 7.375 -4.496094 7.015625 -5.972656 L 0.648438 -5.972656 C 1.152344 -1.65625 4.710938 0.503906 9.929688 0.503906 C 14.570312 0.503906 18.417969 -1.402344 18.417969 -5.503906 C 18.417969 -9.207031 15.933594 -10.71875 12.445312 -11.582031 C 8.777344 -12.480469 7.914062 -13.203125 7.914062 -14.28125 C 7.914062 -15.109375 8.5625 -15.683594 9.460938 -15.683594 C 10.613281 -15.683594 11.257812 -14.929688 11.546875 -13.597656 L 17.914062 -13.597656 C 17.410156 -17.085938 14.640625 -19.710938 9.855469 -19.710938 Z M 9.855469 -19.710938 "/></g></g></g><g fill="#000000" fill-opacity="1"><g transform="translate(434.220821, 112.165632)"><g><path d="M 9.710938 -15.035156 L 13.957031 -15.035156 L 13.957031 -19.066406 L 9.710938 -19.066406 L 9.710938 -24.027344 L 3.238281 -24.027344 L 3.238281 -19.066406 L 0.179688 -19.066406 L 0.179688 -15.035156 L 3.238281 -15.035156 L 3.238281 -7.015625 C 3.238281 -5.933594 3.238281 -5.035156 3.308594 -3.921875 C 3.523438 -0.972656 4.964844 0.503906 9.75 0.503906 C 11.117188 0.503906 12.300781 0.394531 13.5625 0.179688 L 13.5625 -3.847656 C 10.503906 -3.707031 9.890625 -4.136719 9.75 -6.078125 C 9.710938 -6.582031 9.710938 -7.300781 9.710938 -7.949219 Z M 9.710938 -15.035156 "/></g></g></g><g fill="#000000" fill-opacity="1"><g transform="translate(451.883007, 112.165632)"><g><path d="M 20.753906 -9.855469 C 20.753906 -14.820312 17.519531 -19.710938 11.117188 -19.710938 C 4.710938 -19.710938 0.863281 -15.144531 0.863281 -9.53125 C 0.863281 -2.769531 5.25 0.503906 10.753906 0.503906 C 15.683594 0.503906 19.28125 -1.941406 20.394531 -6.296875 L 14.027344 -6.296875 C 13.777344 -4.820312 12.660156 -3.886719 10.828125 -3.886719 C 8.992188 -3.886719 7.589844 -4.785156 7.265625 -7.984375 L 20.648438 -7.984375 C 20.71875 -8.632812 20.753906 -9.28125 20.753906 -9.855469 Z M 10.792969 -15.324219 C 12.519531 -15.324219 13.632812 -14.207031 13.992188 -11.941406 L 7.480469 -11.941406 C 7.914062 -14.316406 9.101562 -15.324219 10.792969 -15.324219 Z M 10.792969 -15.324219 "/></g></g></g><g fill="#000000" fill-opacity="1"><g transform="translate(476.77553, 112.165632)"><g><path d="M 32.84375 -14.855469 C 32.410156 -17.480469 30.253906 -19.710938 26.402344 -19.710938 C 24.640625 -19.710938 23.453125 -19.316406 22.265625 -18.597656 L 20.253906 -15.972656 C 19.425781 -18.09375 17.375 -19.710938 14.101562 -19.710938 C 12.339844 -19.710938 11.152344 -19.316406 9.964844 -18.597656 L 8.417969 -16.117188 L 8.417969 -19.207031 L 1.941406 -19.207031 L 1.941406 0 L 8.417969 0 L 8.417969 -10.144531 C 8.417969 -13.417969 9.246094 -15.324219 11.332031 -15.324219 C 13.023438 -15.324219 13.886719 -14.246094 14.101562 -12.410156 C 14.207031 -11.4375 14.246094 -10.394531 14.246094 -9.785156 L 14.246094 0 L 20.71875 0 L 20.71875 -10.144531 C 20.71875 -13.417969 21.546875 -15.324219 23.632812 -15.324219 C 25.324219 -15.324219 26.1875 -14.246094 26.402344 -12.410156 C 26.511719 -11.4375 26.546875 -10.394531 26.546875 -9.785156 L 26.546875 0 L 33.023438 0 L 33.023438 -11.222656 C 33.023438 -12.769531 32.984375 -13.886719 32.84375 -14.855469 Z M 32.84375 -14.855469 "/></g></g></g><g fill="#000000" fill-opacity="1"><g transform="translate(514.797497, 112.165632)"><g/></g></g><g fill="#ffffff" fill-opacity="1"><g transform="translate(104.566969, 215.452252)"><g><path d="M 7.480469 -2.859375 L 8.40625 0 L 11.542969 0 L 7.5625 -11.03125 L 4.042969 -11.03125 L 0.0625 0 L 3.117188 0 L 4.042969 -2.859375 Z M 5.769531 -8.488281 L 6.792969 -5.097656 L 4.746094 -5.097656 Z M 5.769531 -8.488281 "/></g></g></g><g fill="#ffffff" fill-opacity="1"><g transform="translate(118.137602, 215.452252)"><g><path d="M 4.378906 -8.757812 C 2.109375 -8.757812 0.640625 -7.703125 0.640625 -6.011719 C 0.640625 -4.554688 1.613281 -3.804688 3.246094 -3.421875 C 4.761719 -3.070312 5.308594 -2.765625 5.308594 -2.222656 C 5.308594 -1.773438 4.90625 -1.566406 4.394531 -1.566406 C 3.789062 -1.566406 3.277344 -2 3.117188 -2.652344 L 0.289062 -2.652344 C 0.511719 -0.734375 2.09375 0.222656 4.410156 0.222656 C 6.472656 0.222656 8.183594 -0.625 8.183594 -2.445312 C 8.183594 -4.09375 7.082031 -4.761719 5.53125 -5.148438 C 3.898438 -5.546875 3.515625 -5.867188 3.515625 -6.347656 C 3.515625 -6.714844 3.804688 -6.96875 4.203125 -6.96875 C 4.714844 -6.96875 5.003906 -6.632812 5.132812 -6.042969 L 7.960938 -6.042969 C 7.738281 -7.59375 6.507812 -8.757812 4.378906 -8.757812 Z M 4.378906 -8.757812 "/></g></g></g><g fill="#ffffff" fill-opacity="1"><g transform="translate(128.847167, 215.452252)"><g><path d="M 4.347656 -3.164062 L 6.632812 0 L 10.167969 0 L 6.507812 -4.621094 L 10.117188 -8.535156 L 6.746094 -8.535156 L 3.742188 -4.957031 L 3.742188 -11.75 L 0.863281 -11.75 L 0.863281 0 L 3.742188 0 L 3.742188 -2.492188 Z M 4.347656 -3.164062 "/></g></g></g><g fill="#ffffff" fill-opacity="1"><g transform="translate(141.219034, 215.452252)"><g/></g></g><g fill="#ffffff" fill-opacity="1"><g transform="translate(146.302369, 215.452252)"><g><path d="M 5.867188 0 L 8.679688 0 C 8.550781 -0.941406 8.519531 -1.519531 8.519531 -2.15625 L 8.519531 -4.554688 C 8.519531 -5.082031 8.503906 -5.578125 8.472656 -6.011719 C 8.34375 -7.5625 7.417969 -8.757812 4.714844 -8.757812 C 2.558594 -8.757812 0.785156 -7.625 0.765625 -5.625 L 3.484375 -5.644531 C 3.53125 -6.378906 3.917969 -6.808594 4.585938 -6.808594 C 5.210938 -6.808594 5.5625 -6.425781 5.609375 -5.996094 C 5.644531 -5.722656 5.644531 -5.546875 5.644531 -5.371094 L 5.644531 -5.242188 L 5.097656 -5.242188 C 2.207031 -5.242188 0.480469 -4.125 0.480469 -2.300781 C 0.480469 -0.65625 1.804688 0.222656 3.214844 0.222656 C 3.996094 0.222656 4.714844 0.03125 5.324219 -0.351562 L 5.675781 -1.246094 Z M 4.394531 -1.726562 C 3.820312 -1.726562 3.421875 -2.015625 3.421875 -2.527344 C 3.421875 -3.371094 4.347656 -3.707031 5.644531 -3.613281 L 5.644531 -3.054688 C 5.644531 -2.15625 4.972656 -1.726562 4.394531 -1.726562 Z M 4.394531 -1.726562 "/></g></g></g><g fill="#ffffff" fill-opacity="1"><g transform="translate(157.954964, 215.452252)"><g/></g></g><g fill="#ffffff" fill-opacity="1"><g transform="translate(163.038299, 215.452252)"><g><path d="M 10.742188 -2.03125 C 11.683594 -2.910156 12.148438 -4.171875 12.148438 -5.515625 C 12.148438 -9.0625 9.941406 -11.269531 6.507812 -11.269531 C 3.070312 -11.269531 0.863281 -9.0625 0.863281 -5.515625 C 0.863281 -1.980469 3.070312 0.222656 6.507812 0.222656 C 6.921875 0.222656 7.289062 0.191406 7.640625 0.113281 C 8.089844 0.015625 8.359375 -0.03125 8.808594 -0.03125 C 9.558594 -0.03125 10.054688 0.144531 11.078125 0.765625 L 12.453125 -1.054688 C 11.859375 -1.550781 11.332031 -1.855469 10.742188 -2.03125 Z M 3.804688 -5.515625 C 3.804688 -7.863281 4.84375 -9.160156 6.507812 -9.160156 C 8.167969 -9.160156 9.207031 -7.863281 9.207031 -5.515625 C 9.207031 -3.179688 8.167969 -1.886719 6.507812 -1.886719 C 4.84375 -1.886719 3.804688 -3.179688 3.804688 -5.515625 Z M 3.804688 -5.515625 "/></g></g></g><g fill="#ffffff" fill-opacity="1"><g transform="translate(177.951562, 215.452252)"><g><path d="M 9.367188 -8.535156 L 6.488281 -8.535156 L 6.488281 -3.707031 C 6.488281 -2.574219 5.945312 -1.726562 5.035156 -1.726562 C 4.125 -1.726562 3.742188 -2.207031 3.644531 -3.019531 C 3.597656 -3.453125 3.582031 -3.917969 3.582031 -4.1875 L 3.582031 -8.535156 L 0.703125 -8.535156 L 0.703125 -3.546875 C 0.703125 -2.859375 0.71875 -2.367188 0.785156 -1.933594 C 0.976562 -0.765625 2.046875 0.222656 3.804688 0.222656 C 4.585938 0.222656 5.195312 0.046875 5.722656 -0.273438 L 6.488281 -1.4375 L 6.488281 0 L 9.367188 0 Z M 9.367188 -8.535156 "/></g></g></g><g fill="#ffffff" fill-opacity="1"><g transform="translate(190.451294, 215.452252)"><g><path d="M 9.222656 -4.378906 C 9.222656 -6.585938 7.785156 -8.757812 4.9375 -8.757812 C 2.09375 -8.757812 0.382812 -6.730469 0.382812 -4.234375 C 0.382812 -1.230469 2.332031 0.222656 4.78125 0.222656 C 6.96875 0.222656 8.566406 -0.863281 9.0625 -2.796875 L 6.234375 -2.796875 C 6.121094 -2.140625 5.625 -1.726562 4.8125 -1.726562 C 3.996094 -1.726562 3.371094 -2.125 3.230469 -3.546875 L 9.175781 -3.546875 C 9.207031 -3.835938 9.222656 -4.125 9.222656 -4.378906 Z M 4.796875 -6.808594 C 5.5625 -6.808594 6.058594 -6.3125 6.21875 -5.308594 L 3.324219 -5.308594 C 3.515625 -6.363281 4.042969 -6.808594 4.796875 -6.808594 Z M 4.796875 -6.808594 "/></g></g></g><g fill="#ffffff" fill-opacity="1"><g transform="translate(202.327669, 215.452252)"><g><path d="M 4.378906 -8.757812 C 2.109375 -8.757812 0.640625 -7.703125 0.640625 -6.011719 C 0.640625 -4.554688 1.613281 -3.804688 3.246094 -3.421875 C 4.761719 -3.070312 5.308594 -2.765625 5.308594 -2.222656 C 5.308594 -1.773438 4.90625 -1.566406 4.394531 -1.566406 C 3.789062 -1.566406 3.277344 -2 3.117188 -2.652344 L 0.289062 -2.652344 C 0.511719 -0.734375 2.09375 0.222656 4.410156 0.222656 C 6.472656 0.222656 8.183594 -0.625 8.183594 -2.445312 C 8.183594 -4.09375 7.082031 -4.761719 5.53125 -5.148438 C 3.898438 -5.546875 3.515625 -5.867188 3.515625 -6.347656 C 3.515625 -6.714844 3.804688 -6.96875 4.203125 -6.96875 C 4.714844 -6.96875 5.003906 -6.632812 5.132812 -6.042969 L 7.960938 -6.042969 C 7.738281 -7.59375 6.507812 -8.757812 4.378906 -8.757812 Z M 4.378906 -8.757812 "/></g></g></g><g fill="#ffffff" fill-opacity="1"><g transform="translate(213.037233, 215.452252)"><g><path d="M 9.222656 -4.378906 C 9.222656 -6.585938 7.785156 -8.757812 4.9375 -8.757812 C 2.09375 -8.757812 0.382812 -6.730469 0.382812 -4.234375 C 0.382812 -1.230469 2.332031 0.222656 4.78125 0.222656 C 6.96875 0.222656 8.566406 -0.863281 9.0625 -2.796875 L 6.234375 -2.796875 C 6.121094 -2.140625 5.625 -1.726562 4.8125 -1.726562 C 3.996094 -1.726562 3.371094 -2.125 3.230469 -3.546875 L 9.175781 -3.546875 C 9.207031 -3.835938 9.222656 -4.125 9.222656 -4.378906 Z M 4.796875 -6.808594 C 5.5625 -6.808594 6.058594 -6.3125 6.21875 -5.308594 L 3.324219 -5.308594 C 3.515625 -6.363281 4.042969 -6.808594 4.796875 -6.808594 Z M 4.796875 -6.808594 "/></g></g></g><g fill="#ffffff" fill-opacity="1"><g transform="translate(224.913602, 215.452252)"><g><path d="M 4.316406 -6.683594 L 6.203125 -6.683594 L 6.203125 -8.472656 L 4.316406 -8.472656 L 4.316406 -10.679688 L 1.4375 -10.679688 L 1.4375 -8.472656 L 0.078125 -8.472656 L 0.078125 -6.683594 L 1.4375 -6.683594 L 1.4375 -3.117188 C 1.4375 -2.636719 1.4375 -2.238281 1.46875 -1.742188 C 1.566406 -0.429688 2.207031 0.222656 4.332031 0.222656 C 4.9375 0.222656 5.46875 0.175781 6.027344 0.078125 L 6.027344 -1.710938 C 4.667969 -1.644531 4.394531 -1.839844 4.332031 -2.703125 C 4.316406 -2.925781 4.316406 -3.246094 4.316406 -3.53125 Z M 4.316406 -6.683594 "/></g></g></g><g fill="#ffffff" fill-opacity="1"><g transform="translate(233.577262, 215.452252)"><g><path d="M 2.300781 -12.003906 C 1.40625 -12.003906 0.816406 -11.460938 0.816406 -10.597656 C 0.816406 -9.734375 1.40625 -9.191406 2.300781 -9.191406 C 3.195312 -9.191406 3.789062 -9.734375 3.789062 -10.597656 C 3.789062 -11.460938 3.195312 -12.003906 2.300781 -12.003906 Z M 3.742188 0 L 3.742188 -8.535156 L 0.863281 -8.535156 L 0.863281 0 Z M 3.742188 0 "/></g></g></g><g fill="#ffffff" fill-opacity="1"><g transform="translate(240.450766, 215.452252)"><g><path d="M 4.972656 -8.757812 C 2.175781 -8.757812 0.382812 -7.015625 0.382812 -4.269531 C 0.382812 -1.535156 2.175781 0.222656 4.972656 0.222656 C 7.769531 0.222656 9.558594 -1.535156 9.558594 -4.269531 C 9.558594 -7.015625 7.769531 -8.757812 4.972656 -8.757812 Z M 4.972656 -1.726562 C 3.949219 -1.726562 3.324219 -2.574219 3.324219 -4.269531 C 3.324219 -5.976562 3.949219 -6.808594 4.972656 -6.808594 C 5.996094 -6.808594 6.617188 -5.976562 6.617188 -4.269531 C 6.617188 -2.574219 5.996094 -1.726562 4.972656 -1.726562 Z M 4.972656 -1.726562 "/></g></g></g><g fill="#ffffff" fill-opacity="1"><g transform="translate(252.66279, 215.452252)"><g><path d="M 9.445312 -6.441406 C 9.222656 -7.929688 8.183594 -8.757812 6.425781 -8.757812 C 5.644531 -8.757812 5.035156 -8.582031 4.507812 -8.265625 L 3.742188 -7.210938 L 3.742188 -8.535156 L 0.863281 -8.535156 L 0.863281 0 L 3.742188 0 L 3.742188 -4.027344 C 3.742188 -5.960938 4.363281 -6.808594 5.242188 -6.808594 C 6.105469 -6.808594 6.554688 -6.328125 6.617188 -5.515625 C 6.648438 -5.082031 6.648438 -4.621094 6.648438 -4.347656 L 6.648438 0 L 9.527344 0 L 9.527344 -4.828125 C 9.527344 -5.515625 9.511719 -6.011719 9.445312 -6.441406 Z M 9.445312 -6.441406 "/></g></g></g><g fill="#ffffff" fill-opacity="1"><g transform="translate(104.566969, 237.185204)"><g><path d="M 6.539062 -5.882812 L 6.539062 -3.644531 L 8.679688 -3.644531 C 8.28125 -2.429688 7.542969 -1.886719 6.425781 -1.886719 C 5.066406 -1.886719 3.867188 -2.828125 3.867188 -5.609375 C 3.867188 -7.992188 5.035156 -9.144531 6.441406 -9.144531 C 7.609375 -9.144531 8.328125 -8.582031 8.566406 -7.402344 L 8.601562 -7.242188 L 11.476562 -7.242188 L 11.460938 -7.402344 C 11.238281 -9.574219 9.621094 -11.253906 6.472656 -11.253906 C 3.453125 -11.253906 0.863281 -9.269531 0.863281 -5.433594 C 0.863281 -1.726562 2.925781 0.222656 5.867188 0.222656 C 7.035156 0.222656 7.785156 0.046875 8.40625 -0.480469 L 8.886719 -1.695312 L 9.160156 0 L 11.398438 0 L 11.398438 -5.882812 Z M 6.539062 -5.882812 "/></g></g></g><g fill="#ffffff" fill-opacity="1"><g transform="translate(118.968752, 237.185204)"><g><path d="M 9.222656 -4.378906 C 9.222656 -6.585938 7.785156 -8.757812 4.9375 -8.757812 C 2.09375 -8.757812 0.382812 -6.730469 0.382812 -4.234375 C 0.382812 -1.230469 2.332031 0.222656 4.78125 0.222656 C 6.96875 0.222656 8.566406 -0.863281 9.0625 -2.796875 L 6.234375 -2.796875 C 6.121094 -2.140625 5.625 -1.726562 4.8125 -1.726562 C 3.996094 -1.726562 3.371094 -2.125 3.230469 -3.546875 L 9.175781 -3.546875 C 9.207031 -3.835938 9.222656 -4.125 9.222656 -4.378906 Z M 4.796875 -6.808594 C 5.5625 -6.808594 6.058594 -6.3125 6.21875 -5.308594 L 3.324219 -5.308594 C 3.515625 -6.363281 4.042969 -6.808594 4.796875 -6.808594 Z M 4.796875 -6.808594 "/></g></g></g><g fill="#ffffff" fill-opacity="1"><g transform="translate(130.845123, 237.185204)"><g><path d="M 4.316406 -6.683594 L 6.203125 -6.683594 L 6.203125 -8.472656 L 4.316406 -8.472656 L 4.316406 -10.679688 L 1.4375 -10.679688 L 1.4375 -8.472656 L 0.078125 -8.472656 L 0.078125 -6.683594 L 1.4375 -6.683594 L 1.4375 -3.117188 C 1.4375 -2.636719 1.4375 -2.238281 1.46875 -1.742188 C 1.566406 -0.429688 2.207031 0.222656 4.332031 0.222656 C 4.9375 0.222656 5.46875 0.175781 6.027344 0.078125 L 6.027344 -1.710938 C 4.667969 -1.644531 4.394531 -1.839844 4.332031 -2.703125 C 4.316406 -2.925781 4.316406 -3.246094 4.316406 -3.53125 Z M 4.316406 -6.683594 "/></g></g></g><g fill="#ffffff" fill-opacity="1"><g transform="translate(139.508783, 237.185204)"><g/></g></g><g fill="#ffffff" fill-opacity="1"><g transform="translate(144.592118, 237.185204)"><g><path d="M 5.148438 -11.253906 C 2.957031 -11.253906 0.976562 -10.054688 0.976562 -7.929688 C 0.976562 -5.722656 2.445312 -4.9375 4.957031 -4.316406 C 6.3125 -3.980469 6.730469 -3.484375 6.730469 -2.910156 C 6.730469 -2.300781 6.121094 -1.886719 5.324219 -1.886719 C 4.460938 -1.886719 3.613281 -2.332031 3.421875 -3.371094 L 0.542969 -3.371094 C 0.71875 -0.894531 2.605469 0.222656 5.402344 0.222656 C 7.625 0.222656 9.734375 -0.894531 9.734375 -3.101562 C 9.734375 -4.796875 8.742188 -6.011719 6.3125 -6.585938 C 4.492188 -7.015625 3.980469 -7.449219 3.980469 -8.152344 C 3.980469 -8.824219 4.429688 -9.144531 5.082031 -9.144531 C 6.027344 -9.144531 6.507812 -8.535156 6.632812 -7.625 L 9.511719 -7.625 C 9.269531 -9.671875 8.054688 -11.253906 5.148438 -11.253906 Z M 5.148438 -11.253906 "/></g></g></g><g fill="#ffffff" fill-opacity="1"><g transform="translate(156.868079, 237.185204)"><g><path d="M 4.972656 -8.757812 C 2.175781 -8.757812 0.382812 -7.015625 0.382812 -4.269531 C 0.382812 -1.535156 2.175781 0.222656 4.972656 0.222656 C 7.769531 0.222656 9.558594 -1.535156 9.558594 -4.269531 C 9.558594 -7.015625 7.769531 -8.757812 4.972656 -8.757812 Z M 4.972656 -1.726562 C 3.949219 -1.726562 3.324219 -2.574219 3.324219 -4.269531 C 3.324219 -5.976562 3.949219 -6.808594 4.972656 -6.808594 C 5.996094 -6.808594 6.617188 -5.976562 6.617188 -4.269531 C 6.617188 -2.574219 5.996094 -1.726562 4.972656 -1.726562 Z M 4.972656 -1.726562 "/></g></g></g><g fill="#ffffff" fill-opacity="1"><g transform="translate(169.080103, 237.185204)"><g><path d="M 14.59375 -6.601562 C 14.402344 -7.769531 13.441406 -8.757812 11.734375 -8.757812 C 10.949219 -8.757812 10.421875 -8.582031 9.894531 -8.265625 L 9 -7.097656 C 8.632812 -8.039062 7.722656 -8.757812 6.265625 -8.757812 C 5.484375 -8.757812 4.957031 -8.582031 4.429688 -8.265625 L 3.742188 -7.160156 L 3.742188 -8.535156 L 0.863281 -8.535156 L 0.863281 0 L 3.742188 0 L 3.742188 -4.507812 C 3.742188 -5.960938 4.109375 -6.808594 5.035156 -6.808594 C 5.785156 -6.808594 6.171875 -6.328125 6.265625 -5.515625 C 6.3125 -5.082031 6.328125 -4.621094 6.328125 -4.347656 L 6.328125 0 L 9.207031 0 L 9.207031 -4.507812 C 9.207031 -5.960938 9.574219 -6.808594 10.503906 -6.808594 C 11.253906 -6.808594 11.636719 -6.328125 11.734375 -5.515625 C 11.78125 -5.082031 11.796875 -4.621094 11.796875 -4.347656 L 11.796875 0 L 14.675781 0 L 14.675781 -4.988281 C 14.675781 -5.675781 14.660156 -6.171875 14.59375 -6.601562 Z M 14.59375 -6.601562 "/></g></g></g><g fill="#ffffff" fill-opacity="1"><g transform="translate(186.7905, 237.185204)"><g><path d="M 9.222656 -4.378906 C 9.222656 -6.585938 7.785156 -8.757812 4.9375 -8.757812 C 2.09375 -8.757812 0.382812 -6.730469 0.382812 -4.234375 C 0.382812 -1.230469 2.332031 0.222656 4.78125 0.222656 C 6.96875 0.222656 8.566406 -0.863281 9.0625 -2.796875 L 6.234375 -2.796875 C 6.121094 -2.140625 5.625 -1.726562 4.8125 -1.726562 C 3.996094 -1.726562 3.371094 -2.125 3.230469 -3.546875 L 9.175781 -3.546875 C 9.207031 -3.835938 9.222656 -4.125 9.222656 -4.378906 Z M 4.796875 -6.808594 C 5.5625 -6.808594 6.058594 -6.3125 6.21875 -5.308594 L 3.324219 -5.308594 C 3.515625 -6.363281 4.042969 -6.808594 4.796875 -6.808594 Z M 4.796875 -6.808594 "/></g></g></g><g fill="#ffffff" fill-opacity="1"><g transform="translate(198.666869, 237.185204)"><g/></g></g><g fill="#ffffff" fill-opacity="1"><g transform="translate(203.75021, 237.185204)"><g><path d="M 7.480469 -2.859375 L 8.40625 0 L 11.542969 0 L 7.5625 -11.03125 L 4.042969 -11.03125 L 0.0625 0 L 3.117188 0 L 4.042969 -2.859375 Z M 5.769531 -8.488281 L 6.792969 -5.097656 L 4.746094 -5.097656 Z M 5.769531 -8.488281 "/></g></g></g><g fill="#ffffff" fill-opacity="1"><g transform="translate(217.320841, 237.185204)"><g><path d="M 9.445312 -6.441406 C 9.222656 -7.929688 8.183594 -8.757812 6.425781 -8.757812 C 5.644531 -8.757812 5.035156 -8.582031 4.507812 -8.265625 L 3.742188 -7.210938 L 3.742188 -8.535156 L 0.863281 -8.535156 L 0.863281 0 L 3.742188 0 L 3.742188 -4.027344 C 3.742188 -5.960938 4.363281 -6.808594 5.242188 -6.808594 C 6.105469 -6.808594 6.554688 -6.328125 6.617188 -5.515625 C 6.648438 -5.082031 6.648438 -4.621094 6.648438 -4.347656 L 6.648438 0 L 9.527344 0 L 9.527344 -4.828125 C 9.527344 -5.515625 9.511719 -6.011719 9.445312 -6.441406 Z M 9.445312 -6.441406 "/></g></g></g><g fill="#ffffff" fill-opacity="1"><g transform="translate(229.884507, 237.185204)"><g><path d="M 4.378906 -8.757812 C 2.109375 -8.757812 0.640625 -7.703125 0.640625 -6.011719 C 0.640625 -4.554688 1.613281 -3.804688 3.246094 -3.421875 C 4.761719 -3.070312 5.308594 -2.765625 5.308594 -2.222656 C 5.308594 -1.773438 4.90625 -1.566406 4.394531 -1.566406 C 3.789062 -1.566406 3.277344 -2 3.117188 -2.652344 L 0.289062 -2.652344 C 0.511719 -0.734375 2.09375 0.222656 4.410156 0.222656 C 6.472656 0.222656 8.183594 -0.625 8.183594 -2.445312 C 8.183594 -4.09375 7.082031 -4.761719 5.53125 -5.148438 C 3.898438 -5.546875 3.515625 -5.867188 3.515625 -6.347656 C 3.515625 -6.714844 3.804688 -6.96875 4.203125 -6.96875 C 4.714844 -6.96875 5.003906 -6.632812 5.132812 -6.042969 L 7.960938 -6.042969 C 7.738281 -7.59375 6.507812 -8.757812 4.378906 -8.757812 Z M 4.378906 -8.757812 "/></g></g></g><g fill="#ffffff" fill-opacity="1"><g transform="translate(240.594071, 237.185204)"><g><path d="M 14.003906 -8.535156 L 10.902344 -8.535156 L 9.816406 -2.414062 L 8.726562 -8.472656 L 5.308594 -8.472656 L 4.285156 -2.429688 L 3.164062 -8.535156 L 0 -8.535156 L 2.703125 0 L 5.914062 0 L 7 -5.753906 L 8.089844 0 L 11.300781 0 Z M 14.003906 -8.535156 "/></g></g></g><g fill="#ffffff" fill-opacity="1"><g transform="translate(256.738073, 237.185204)"><g><path d="M 9.222656 -4.378906 C 9.222656 -6.585938 7.785156 -8.757812 4.9375 -8.757812 C 2.09375 -8.757812 0.382812 -6.730469 0.382812 -4.234375 C 0.382812 -1.230469 2.332031 0.222656 4.78125 0.222656 C 6.96875 0.222656 8.566406 -0.863281 9.0625 -2.796875 L 6.234375 -2.796875 C 6.121094 -2.140625 5.625 -1.726562 4.8125 -1.726562 C 3.996094 -1.726562 3.371094 -2.125 3.230469 -3.546875 L 9.175781 -3.546875 C 9.207031 -3.835938 9.222656 -4.125 9.222656 -4.378906 Z M 4.796875 -6.808594 C 5.5625 -6.808594 6.058594 -6.3125 6.21875 -5.308594 L 3.324219 -5.308594 C 3.515625 -6.363281 4.042969 -6.808594 4.796875 -6.808594 Z M 4.796875 -6.808594 "/></g></g></g><g fill="#ffffff" fill-opacity="1"><g transform="translate(268.614443, 237.185204)"><g><path d="M 6.027344 -8.757812 C 5.484375 -8.757812 4.8125 -8.519531 4.347656 -8.007812 L 3.742188 -6.808594 L 3.742188 -8.535156 L 0.863281 -8.535156 L 0.863281 0 L 3.742188 0 L 3.742188 -3.132812 C 3.742188 -5.707031 4.523438 -6.507812 6.683594 -6.363281 L 6.683594 -8.710938 C 6.472656 -8.742188 6.296875 -8.757812 6.027344 -8.757812 Z M 6.027344 -8.757812 "/></g></g></g><g fill="#ffffff" fill-opacity="1"><g transform="translate(277.597783, 237.185204)"><g/></g></g><g fill="#ffffff" fill-opacity="1"><g transform="translate(282.681118, 237.185204)"><g><path d="M 5.148438 -11.253906 C 2.957031 -11.253906 0.976562 -10.054688 0.976562 -7.929688 C 0.976562 -5.722656 2.445312 -4.9375 4.957031 -4.316406 C 6.3125 -3.980469 6.730469 -3.484375 6.730469 -2.910156 C 6.730469 -2.300781 6.121094 -1.886719 5.324219 -1.886719 C 4.460938 -1.886719 3.613281 -2.332031 3.421875 -3.371094 L 0.542969 -3.371094 C 0.71875 -0.894531 2.605469 0.222656 5.402344 0.222656 C 7.625 0.222656 9.734375 -0.894531 9.734375 -3.101562 C 9.734375 -4.796875 8.742188 -6.011719 6.3125 -6.585938 C 4.492188 -7.015625 3.980469 -7.449219 3.980469 -8.152344 C 3.980469 -8.824219 4.429688 -9.144531 5.082031 -9.144531 C 6.027344 -9.144531 6.507812 -8.535156 6.632812 -7.625 L 9.511719 -7.625 C 9.269531 -9.671875 8.054688 -11.253906 5.148438 -11.253906 Z M 5.148438 -11.253906 "/></g></g></g><g fill="#ffffff" fill-opacity="1"><g transform="translate(294.957076, 237.185204)"><g><path d="M 9.222656 -4.378906 C 9.222656 -6.585938 7.785156 -8.757812 4.9375 -8.757812 C 2.09375 -8.757812 0.382812 -6.730469 0.382812 -4.234375 C 0.382812 -1.230469 2.332031 0.222656 4.78125 0.222656 C 6.96875 0.222656 8.566406 -0.863281 9.0625 -2.796875 L 6.234375 -2.796875 C 6.121094 -2.140625 5.625 -1.726562 4.8125 -1.726562 C 3.996094 -1.726562 3.371094 -2.125 3.230469 -3.546875 L 9.175781 -3.546875 C 9.207031 -3.835938 9.222656 -4.125 9.222656 -4.378906 Z M 4.796875 -6.808594 C 5.5625 -6.808594 6.058594 -6.3125 6.21875 -5.308594 L 3.324219 -5.308594 C 3.515625 -6.363281 4.042969 -6.808594 4.796875 -6.808594 Z M 4.796875 -6.808594 "/></g></g></g><g fill="#ffffff" fill-opacity="1"><g transform="translate(306.833445, 237.185204)"><g><path d="M 9.445312 -6.441406 C 9.222656 -7.929688 8.183594 -8.757812 6.425781 -8.757812 C 5.644531 -8.757812 5.035156 -8.582031 4.507812 -8.265625 L 3.742188 -7.210938 L 3.742188 -8.535156 L 0.863281 -8.535156 L 0.863281 0 L 3.742188 0 L 3.742188 -4.027344 C 3.742188 -5.960938 4.363281 -6.808594 5.242188 -6.808594 C 6.105469 -6.808594 6.554688 -6.328125 6.617188 -5.515625 C 6.648438 -5.082031 6.648438 -4.621094 6.648438 -4.347656 L 6.648438 0 L 9.527344 0 L 9.527344 -4.828125 C 9.527344 -5.515625 9.511719 -6.011719 9.445312 -6.441406 Z M 9.445312 -6.441406 "/></g></g></g><g fill="#ffffff" fill-opacity="1"><g transform="translate(319.397122, 237.185204)"><g><path d="M 4.316406 -6.683594 L 6.203125 -6.683594 L 6.203125 -8.472656 L 4.316406 -8.472656 L 4.316406 -10.679688 L 1.4375 -10.679688 L 1.4375 -8.472656 L 0.078125 -8.472656 L 0.078125 -6.683594 L 1.4375 -6.683594 L 1.4375 -3.117188 C 1.4375 -2.636719 1.4375 -2.238281 1.46875 -1.742188 C 1.566406 -0.429688 2.207031 0.222656 4.332031 0.222656 C 4.9375 0.222656 5.46875 0.175781 6.027344 0.078125 L 6.027344 -1.710938 C 4.667969 -1.644531 4.394531 -1.839844 4.332031 -2.703125 C 4.316406 -2.925781 4.316406 -3.246094 4.316406 -3.53125 Z M 4.316406 -6.683594 "/></g></g></g><g fill="#ffffff" fill-opacity="1"><g transform="translate(328.060783, 237.185204)"><g><path d="M 9.222656 -4.378906 C 9.222656 -6.585938 7.785156 -8.757812 4.9375 -8.757812 C 2.09375 -8.757812 0.382812 -6.730469 0.382812 -4.234375 C 0.382812 -1.230469 2.332031 0.222656 4.78125 0.222656 C 6.96875 0.222656 8.566406 -0.863281 9.0625 -2.796875 L 6.234375 -2.796875 C 6.121094 -2.140625 5.625 -1.726562 4.8125 -1.726562 C 3.996094 -1.726562 3.371094 -2.125 3.230469 -3.546875 L 9.175781 -3.546875 C 9.207031 -3.835938 9.222656 -4.125 9.222656 -4.378906 Z M 4.796875 -6.808594 C 5.5625 -6.808594 6.058594 -6.3125 6.21875 -5.308594 L 3.324219 -5.308594 C 3.515625 -6.363281 4.042969 -6.808594 4.796875 -6.808594 Z M 4.796875 -6.808594 "/></g></g></g><g fill="#ffffff" fill-opacity="1"><g transform="translate(339.937163, 237.185204)"><g><path d="M 9.445312 -6.441406 C 9.222656 -7.929688 8.183594 -8.757812 6.425781 -8.757812 C 5.644531 -8.757812 5.035156 -8.582031 4.507812 -8.265625 L 3.742188 -7.210938 L 3.742188 -8.535156 L 0.863281 -8.535156 L 0.863281 0 L 3.742188 0 L 3.742188 -4.027344 C 3.742188 -5.960938 4.363281 -6.808594 5.242188 -6.808594 C 6.105469 -6.808594 6.554688 -6.328125 6.617188 -5.515625 C 6.648438 -5.082031 6.648438 -4.621094 6.648438 -4.347656 L 6.648438 0 L 9.527344 0 L 9.527344 -4.828125 C 9.527344 -5.515625 9.511719 -6.011719 9.445312 -6.441406 Z M 9.445312 -6.441406 "/></g></g></g><g fill="#ffffff" fill-opacity="1"><g transform="translate(352.500841, 237.185204)"><g><path d="M 4.875 -8.757812 C 2.367188 -8.757812 0.382812 -7.113281 0.382812 -4.171875 C 0.382812 -1.359375 2.238281 0.222656 4.683594 0.222656 C 7 0.222656 8.710938 -0.925781 9.03125 -3.132812 L 6.203125 -3.132812 C 6.042969 -2.207031 5.5 -1.726562 4.84375 -1.726562 C 3.867188 -1.726562 3.324219 -2.527344 3.324219 -4.347656 C 3.324219 -5.996094 3.851562 -6.808594 4.8125 -6.808594 C 5.53125 -6.808594 6.089844 -6.394531 6.21875 -5.273438 L 9 -5.273438 C 8.917969 -7.191406 7.386719 -8.757812 4.875 -8.757812 Z M 4.875 -8.757812 "/></g></g></g><g fill="#ffffff" fill-opacity="1"><g transform="translate(364.153436, 237.185204)"><g><path d="M 9.222656 -4.378906 C 9.222656 -6.585938 7.785156 -8.757812 4.9375 -8.757812 C 2.09375 -8.757812 0.382812 -6.730469 0.382812 -4.234375 C 0.382812 -1.230469 2.332031 0.222656 4.78125 0.222656 C 6.96875 0.222656 8.566406 -0.863281 9.0625 -2.796875 L 6.234375 -2.796875 C 6.121094 -2.140625 5.625 -1.726562 4.8125 -1.726562 C 3.996094 -1.726562 3.371094 -2.125 3.230469 -3.546875 L 9.175781 -3.546875 C 9.207031 -3.835938 9.222656 -4.125 9.222656 -4.378906 Z M 4.796875 -6.808594 C 5.5625 -6.808594 6.058594 -6.3125 6.21875 -5.308594 L 3.324219 -5.308594 C 3.515625 -6.363281 4.042969 -6.808594 4.796875 -6.808594 Z M 4.796875 -6.808594 "/></g></g></g><g fill="#ffffff" fill-opacity="1"><g transform="translate(376.029816, 237.185204)"><g><path d="M 4.378906 -8.757812 C 2.109375 -8.757812 0.640625 -7.703125 0.640625 -6.011719 C 0.640625 -4.554688 1.613281 -3.804688 3.246094 -3.421875 C 4.761719 -3.070312 5.308594 -2.765625 5.308594 -2.222656 C 5.308594 -1.773438 4.90625 -1.566406 4.394531 -1.566406 C 3.789062 -1.566406 3.277344 -2 3.117188 -2.652344 L 0.289062 -2.652344 C 0.511719 -0.734375 2.09375 0.222656 4.410156 0.222656 C 6.472656 0.222656 8.183594 -0.625 8.183594 -2.445312 C 8.183594 -4.09375 7.082031 -4.761719 5.53125 -5.148438 C 3.898438 -5.546875 3.515625 -5.867188 3.515625 -6.347656 C 3.515625 -6.714844 3.804688 -6.96875 4.203125 -6.96875 C 4.714844 -6.96875 5.003906 -6.632812 5.132812 -6.042969 L 7.960938 -6.042969 C 7.738281 -7.59375 6.507812 -8.757812 4.378906 -8.757812 Z M 4.378906 -8.757812 "/></g></g></g><g fill="#ffffff" fill-opacity="1"><g transform="translate(104.566969, 258.918157)"><g><path d="M 4.15625 -8.792969 L 9.574219 -8.792969 L 9.574219 -11.03125 L 1.277344 -11.03125 L 1.277344 0 L 4.15625 0 L 4.15625 -4.410156 L 9.09375 -4.410156 L 9.09375 -6.648438 L 4.15625 -6.648438 Z M 4.15625 -8.792969 "/></g></g></g><g fill="#ffffff" fill-opacity="1"><g transform="translate(116.667114, 258.918157)"><g><path d="M 6.027344 -8.757812 C 5.484375 -8.757812 4.8125 -8.519531 4.347656 -8.007812 L 3.742188 -6.808594 L 3.742188 -8.535156 L 0.863281 -8.535156 L 0.863281 0 L 3.742188 0 L 3.742188 -3.132812 C 3.742188 -5.707031 4.523438 -6.507812 6.683594 -6.363281 L 6.683594 -8.710938 C 6.472656 -8.742188 6.296875 -8.757812 6.027344 -8.757812 Z M 6.027344 -8.757812 "/></g></g></g><g fill="#ffffff" fill-opacity="1"><g transform="translate(125.650455, 258.918157)"><g><path d="M 4.972656 -8.757812 C 2.175781 -8.757812 0.382812 -7.015625 0.382812 -4.269531 C 0.382812 -1.535156 2.175781 0.222656 4.972656 0.222656 C 7.769531 0.222656 9.558594 -1.535156 9.558594 -4.269531 C 9.558594 -7.015625 7.769531 -8.757812 4.972656 -8.757812 Z M 4.972656 -1.726562 C 3.949219 -1.726562 3.324219 -2.574219 3.324219 -4.269531 C 3.324219 -5.976562 3.949219 -6.808594 4.972656 -6.808594 C 5.996094 -6.808594 6.617188 -5.976562 6.617188 -4.269531 C 6.617188 -2.574219 5.996094 -1.726562 4.972656 -1.726562 Z M 4.972656 -1.726562 "/></g></g></g><g fill="#ffffff" fill-opacity="1"><g transform="translate(137.862483, 258.918157)"><g><path d="M 14.59375 -6.601562 C 14.402344 -7.769531 13.441406 -8.757812 11.734375 -8.757812 C 10.949219 -8.757812 10.421875 -8.582031 9.894531 -8.265625 L 9 -7.097656 C 8.632812 -8.039062 7.722656 -8.757812 6.265625 -8.757812 C 5.484375 -8.757812 4.957031 -8.582031 4.429688 -8.265625 L 3.742188 -7.160156 L 3.742188 -8.535156 L 0.863281 -8.535156 L 0.863281 0 L 3.742188 0 L 3.742188 -4.507812 C 3.742188 -5.960938 4.109375 -6.808594 5.035156 -6.808594 C 5.785156 -6.808594 6.171875 -6.328125 6.265625 -5.515625 C 6.3125 -5.082031 6.328125 -4.621094 6.328125 -4.347656 L 6.328125 0 L 9.207031 0 L 9.207031 -4.507812 C 9.207031 -5.960938 9.574219 -6.808594 10.503906 -6.808594 C 11.253906 -6.808594 11.636719 -6.328125 11.734375 -5.515625 C 11.78125 -5.082031 11.796875 -4.621094 11.796875 -4.347656 L 11.796875 0 L 14.675781 0 L 14.675781 -4.988281 C 14.675781 -5.675781 14.660156 -6.171875 14.59375 -6.601562 Z M 14.59375 -6.601562 "/></g></g></g><g fill="#ffffff" fill-opacity="1"><g transform="translate(155.572879, 258.918157)"><g/></g></g><g fill="#ffffff" fill-opacity="1"><g transform="translate(160.656214, 258.918157)"><g><path d="M 5.148438 -11.253906 C 2.957031 -11.253906 0.976562 -10.054688 0.976562 -7.929688 C 0.976562 -5.722656 2.445312 -4.9375 4.957031 -4.316406 C 6.3125 -3.980469 6.730469 -3.484375 6.730469 -2.910156 C 6.730469 -2.300781 6.121094 -1.886719 5.324219 -1.886719 C 4.460938 -1.886719 3.613281 -2.332031 3.421875 -3.371094 L 0.542969 -3.371094 C 0.71875 -0.894531 2.605469 0.222656 5.402344 0.222656 C 7.625 0.222656 9.734375 -0.894531 9.734375 -3.101562 C 9.734375 -4.796875 8.742188 -6.011719 6.3125 -6.585938 C 4.492188 -7.015625 3.980469 -7.449219 3.980469 -8.152344 C 3.980469 -8.824219 4.429688 -9.144531 5.082031 -9.144531 C 6.027344 -9.144531 6.507812 -8.535156 6.632812 -7.625 L 9.511719 -7.625 C 9.269531 -9.671875 8.054688 -11.253906 5.148438 -11.253906 Z M 5.148438 -11.253906 "/></g></g></g><g fill="#ffffff" fill-opacity="1"><g transform="translate(172.932172, 258.918157)"><g><path d="M 8.441406 -5.996094 C 9.527344 -6.378906 10.054688 -7.144531 10.054688 -8.152344 C 10.054688 -9.589844 9.03125 -10.742188 7.210938 -10.964844 C 6.648438 -11.03125 6.394531 -11.03125 5.800781 -11.03125 L 1.277344 -11.03125 L 1.277344 0 L 5.675781 0 C 6.378906 0 6.746094 0 7.304688 -0.0625 C 8.792969 -0.238281 10.46875 -1.261719 10.46875 -3.324219 C 10.46875 -4.667969 9.832031 -5.59375 8.441406 -5.996094 Z M 4.15625 -8.792969 L 5.449219 -8.792969 C 5.707031 -8.792969 5.960938 -8.777344 6.171875 -8.742188 C 6.714844 -8.664062 7.050781 -8.359375 7.050781 -7.738281 C 7.050781 -7.082031 6.683594 -6.808594 6.152344 -6.730469 C 5.945312 -6.699219 5.707031 -6.683594 5.449219 -6.683594 L 4.15625 -6.683594 Z M 6.425781 -2.253906 C 6.21875 -2.238281 5.960938 -2.238281 5.707031 -2.238281 L 4.15625 -2.238281 L 4.15625 -4.605469 L 5.625 -4.605469 C 5.882812 -4.605469 6.136719 -4.605469 6.347656 -4.585938 C 6.9375 -4.539062 7.464844 -4.15625 7.464844 -3.421875 C 7.464844 -2.703125 6.9375 -2.285156 6.425781 -2.253906 Z M 6.425781 -2.253906 "/></g></g></g><g fill="#ffffff" fill-opacity="1"><g transform="translate(186.087228, 258.918157)"><g><path d="M 9.734375 -2.238281 L 4.15625 -2.238281 L 4.15625 -4.410156 L 9.253906 -4.410156 L 9.253906 -6.648438 L 4.15625 -6.648438 L 4.15625 -8.792969 L 9.574219 -8.792969 L 9.574219 -11.03125 L 1.277344 -11.03125 L 1.277344 0 L 9.734375 0 Z M 9.734375 -2.238281 "/></g></g></g><g fill="#ffffff" fill-opacity="1"><g transform="translate(198.570974, 258.918157)"><g><path d="M 9.878906 -2.683594 C 9.71875 -4.011719 9.304688 -4.859375 8.152344 -5.273438 C 9.621094 -5.707031 10.375 -6.632812 10.375 -8.023438 C 10.375 -9.976562 8.984375 -10.757812 7.386719 -10.949219 C 6.792969 -11.011719 6.347656 -11.03125 5.660156 -11.03125 L 1.277344 -11.03125 L 1.277344 0 L 4.15625 0 L 4.15625 -4.1875 L 4.796875 -4.1875 C 5.113281 -4.1875 5.386719 -4.1875 5.707031 -4.171875 C 6.441406 -4.125 6.921875 -3.421875 7.066406 -2.207031 C 7.160156 -1.421875 7.320312 -0.785156 7.578125 0 L 10.710938 0 C 10.277344 -0.65625 10.023438 -1.4375 9.878906 -2.683594 Z M 4.15625 -6.265625 L 4.15625 -8.792969 L 5.273438 -8.792969 C 5.578125 -8.792969 5.835938 -8.792969 6.042969 -8.777344 C 6.777344 -8.710938 7.367188 -8.457031 7.367188 -7.527344 C 7.367188 -6.601562 6.699219 -6.347656 5.960938 -6.28125 C 5.753906 -6.265625 5.5 -6.265625 5.195312 -6.265625 Z M 4.15625 -6.265625 "/></g></g></g><g fill="#ffffff" fill-opacity="1"><g transform="translate(211.742022, 258.918157)"><g><path d="M 10.261719 -8.792969 L 10.261719 -11.03125 L 0.222656 -11.03125 L 0.222656 -8.792969 L 3.804688 -8.792969 L 3.804688 0 L 6.683594 0 L 6.683594 -8.792969 Z M 10.261719 -8.792969 "/></g></g></g><g fill="#ffffff" fill-opacity="1"><g transform="translate(224.113886, 258.918157)"><g/></g></g><g fill="#ffffff" fill-opacity="1"><g transform="translate(229.197221, 258.918157)"><g><path d="M 5.867188 0 L 8.679688 0 C 8.550781 -0.941406 8.519531 -1.519531 8.519531 -2.15625 L 8.519531 -4.554688 C 8.519531 -5.082031 8.503906 -5.578125 8.472656 -6.011719 C 8.34375 -7.5625 7.417969 -8.757812 4.714844 -8.757812 C 2.558594 -8.757812 0.785156 -7.625 0.765625 -5.625 L 3.484375 -5.644531 C 3.53125 -6.378906 3.917969 -6.808594 4.585938 -6.808594 C 5.210938 -6.808594 5.5625 -6.425781 5.609375 -5.996094 C 5.644531 -5.722656 5.644531 -5.546875 5.644531 -5.371094 L 5.644531 -5.242188 L 5.097656 -5.242188 C 2.207031 -5.242188 0.480469 -4.125 0.480469 -2.300781 C 0.480469 -0.65625 1.804688 0.222656 3.214844 0.222656 C 3.996094 0.222656 4.714844 0.03125 5.324219 -0.351562 L 5.675781 -1.246094 Z M 4.394531 -1.726562 C 3.820312 -1.726562 3.421875 -2.015625 3.421875 -2.527344 C 3.421875 -3.371094 4.347656 -3.707031 5.644531 -3.613281 L 5.644531 -3.054688 C 5.644531 -2.15625 4.972656 -1.726562 4.394531 -1.726562 Z M 4.394531 -1.726562 "/></g></g></g><g fill="#ffffff" fill-opacity="1"><g transform="translate(240.849817, 258.918157)"><g><path d="M 9.445312 -6.441406 C 9.222656 -7.929688 8.183594 -8.757812 6.425781 -8.757812 C 5.644531 -8.757812 5.035156 -8.582031 4.507812 -8.265625 L 3.742188 -7.210938 L 3.742188 -8.535156 L 0.863281 -8.535156 L 0.863281 0 L 3.742188 0 L 3.742188 -4.027344 C 3.742188 -5.960938 4.363281 -6.808594 5.242188 -6.808594 C 6.105469 -6.808594 6.554688 -6.328125 6.617188 -5.515625 C 6.648438 -5.082031 6.648438 -4.621094 6.648438 -4.347656 L 6.648438 0 L 9.527344 0 L 9.527344 -4.828125 C 9.527344 -5.515625 9.511719 -6.011719 9.445312 -6.441406 Z M 9.445312 -6.441406 "/></g></g></g><g fill="#ffffff" fill-opacity="1"><g transform="translate(253.413482, 258.918157)"><g><path d="M 9.832031 -11.75 L 6.953125 -11.75 L 6.953125 -7.433594 L 6.394531 -8.34375 C 5.960938 -8.601562 5.132812 -8.757812 4.429688 -8.757812 C 2.238281 -8.757812 0.382812 -7.113281 0.382812 -4.074219 C 0.382812 -1.550781 1.824219 0.222656 4.140625 0.222656 C 5.003906 0.222656 5.835938 0.046875 6.3125 -0.304688 L 6.953125 -1.246094 L 6.953125 0 L 9.832031 0 Z M 5.132812 -1.726562 C 4.125 -1.726562 3.324219 -2.621094 3.324219 -4.21875 C 3.324219 -5.960938 4.09375 -6.808594 5.210938 -6.808594 C 6.074219 -6.808594 6.953125 -6.234375 6.953125 -4.523438 L 6.953125 -4.15625 C 6.953125 -2.367188 6.1875 -1.726562 5.132812 -1.726562 Z M 5.132812 -1.726562 "/></g></g></g><g fill="#ffffff" fill-opacity="1"><g transform="translate(266.376737, 258.918157)"><g/></g></g><g fill="#ffffff" fill-opacity="1"><g transform="translate(271.460072, 258.918157)"><g><path d="M 8.441406 -5.996094 C 9.527344 -6.378906 10.054688 -7.144531 10.054688 -8.152344 C 10.054688 -9.589844 9.03125 -10.742188 7.210938 -10.964844 C 6.648438 -11.03125 6.394531 -11.03125 5.800781 -11.03125 L 1.277344 -11.03125 L 1.277344 0 L 5.675781 0 C 6.378906 0 6.746094 0 7.304688 -0.0625 C 8.792969 -0.238281 10.46875 -1.261719 10.46875 -3.324219 C 10.46875 -4.667969 9.832031 -5.59375 8.441406 -5.996094 Z M 4.15625 -8.792969 L 5.449219 -8.792969 C 5.707031 -8.792969 5.960938 -8.777344 6.171875 -8.742188 C 6.714844 -8.664062 7.050781 -8.359375 7.050781 -7.738281 C 7.050781 -7.082031 6.683594 -6.808594 6.152344 -6.730469 C 5.945312 -6.699219 5.707031 -6.683594 5.449219 -6.683594 L 4.15625 -6.683594 Z M 6.425781 -2.253906 C 6.21875 -2.238281 5.960938 -2.238281 5.707031 -2.238281 L 4.15625 -2.238281 L 4.15625 -4.605469 L 5.625 -4.605469 C 5.882812 -4.605469 6.136719 -4.605469 6.347656 -4.585938 C 6.9375 -4.539062 7.464844 -4.15625 7.464844 -3.421875 C 7.464844 -2.703125 6.9375 -2.285156 6.425781 -2.253906 Z M 6.425781 -2.253906 "/></g></g></g><g fill="#ffffff" fill-opacity="1"><g transform="translate(284.615128, 258.918157)"><g><path d="M 13.890625 -11.03125 L 9.511719 -11.03125 L 7.640625 -2.796875 L 5.769531 -11.03125 L 1.277344 -11.03125 L 1.277344 0 L 4.15625 0 L 4.15625 -4.636719 C 4.15625 -5.59375 4.15625 -7.015625 4.125 -8.136719 C 4.300781 -7.015625 4.621094 -5.59375 4.875 -4.636719 L 6.105469 0 L 9.0625 0 L 10.277344 -4.636719 C 10.535156 -5.609375 10.855469 -7.015625 11.046875 -8.136719 C 11.011719 -7.015625 11.011719 -5.59375 11.011719 -4.636719 L 11.011719 0 L 13.890625 0 Z M 13.890625 -11.03125 "/></g></g></g><g fill="#ffffff" fill-opacity="1"><g transform="translate(301.638239, 258.918157)"><g><path d="M 5.417969 -2.238281 L 6.890625 -3.660156 C 9.015625 -5.707031 9.605469 -6.699219 9.605469 -7.992188 C 9.605469 -10.054688 8.167969 -11.285156 5.59375 -11.285156 C 2.894531 -11.285156 1.359375 -9.925781 1.117188 -7.496094 L 1.101562 -7.335938 L 3.980469 -7.335938 L 3.996094 -7.496094 C 4.109375 -8.648438 4.523438 -9.175781 5.355469 -9.175781 C 6.136719 -9.175781 6.601562 -8.710938 6.601562 -7.878906 C 6.601562 -6.824219 6.042969 -6.058594 4.394531 -4.507812 L 0.925781 -1.246094 L 0.925781 0 L 9.480469 0 L 9.480469 -2.238281 Z M 5.417969 -2.238281 "/></g></g></g><g fill="#ffffff" fill-opacity="1"><g transform="translate(314.489625, 258.918157)"><g><path d="M 6.058594 -7.511719 C 5.449219 -7.511719 4.859375 -7.402344 4.347656 -7.113281 L 3.933594 -6.378906 L 4.285156 -8.792969 L 9.269531 -8.792969 L 9.269531 -11.03125 L 1.917969 -11.03125 L 1.101562 -4.410156 L 3.757812 -4.410156 C 4.011719 -5.082031 4.429688 -5.402344 5.164062 -5.402344 C 6.152344 -5.402344 6.699219 -4.652344 6.699219 -3.644531 C 6.699219 -2.652344 6.1875 -1.886719 5.113281 -1.886719 C 4.332031 -1.886719 3.882812 -2.351562 3.804688 -3.101562 L 3.789062 -3.261719 L 0.910156 -3.261719 L 0.925781 -3.101562 C 1.167969 -0.75 2.652344 0.222656 5.308594 0.222656 C 7.578125 0.222656 9.703125 -1.136719 9.703125 -3.722656 C 9.703125 -6.136719 8.265625 -7.511719 6.058594 -7.511719 Z M 6.058594 -7.511719 "/></g></g></g><g fill="#ffffff" fill-opacity="1"><g transform="translate(327.34101, 258.918157)"><g/></g></g><g fill="#ffffff" fill-opacity="1"><g transform="translate(332.424356, 258.918157)"><g><path d="M 13.890625 -11.03125 L 9.511719 -11.03125 L 7.640625 -2.796875 L 5.769531 -11.03125 L 1.277344 -11.03125 L 1.277344 0 L 4.15625 0 L 4.15625 -4.636719 C 4.15625 -5.59375 4.15625 -7.015625 4.125 -8.136719 C 4.300781 -7.015625 4.621094 -5.59375 4.875 -4.636719 L 6.105469 0 L 9.0625 0 L 10.277344 -4.636719 C 10.535156 -5.609375 10.855469 -7.015625 11.046875 -8.136719 C 11.011719 -7.015625 11.011719 -5.59375 11.011719 -4.636719 L 11.011719 0 L 13.890625 0 Z M 13.890625 -11.03125 "/></g></g></g><g fill="#ffffff" fill-opacity="1"><g transform="translate(349.447456, 258.918157)"><g><path d="M 4.972656 -8.757812 C 2.175781 -8.757812 0.382812 -7.015625 0.382812 -4.269531 C 0.382812 -1.535156 2.175781 0.222656 4.972656 0.222656 C 7.769531 0.222656 9.558594 -1.535156 9.558594 -4.269531 C 9.558594 -7.015625 7.769531 -8.757812 4.972656 -8.757812 Z M 4.972656 -1.726562 C 3.949219 -1.726562 3.324219 -2.574219 3.324219 -4.269531 C 3.324219 -5.976562 3.949219 -6.808594 4.972656 -6.808594 C 5.996094 -6.808594 6.617188 -5.976562 6.617188 -4.269531 C 6.617188 -2.574219 5.996094 -1.726562 4.972656 -1.726562 Z M 4.972656 -1.726562 "/></g></g></g><g fill="#ffffff" fill-opacity="1"><g transform="translate(361.659481, 258.918157)"><g><path d="M 9.832031 -11.75 L 6.953125 -11.75 L 6.953125 -7.433594 L 6.394531 -8.34375 C 5.960938 -8.601562 5.132812 -8.757812 4.429688 -8.757812 C 2.238281 -8.757812 0.382812 -7.113281 0.382812 -4.074219 C 0.382812 -1.550781 1.824219 0.222656 4.140625 0.222656 C 5.003906 0.222656 5.835938 0.046875 6.3125 -0.304688 L 6.953125 -1.246094 L 6.953125 0 L 9.832031 0 Z M 5.132812 -1.726562 C 4.125 -1.726562 3.324219 -2.621094 3.324219 -4.21875 C 3.324219 -5.960938 4.09375 -6.808594 5.210938 -6.808594 C 6.074219 -6.808594 6.953125 -6.234375 6.953125 -4.523438 L 6.953125 -4.15625 C 6.953125 -2.367188 6.1875 -1.726562 5.132812 -1.726562 Z M 5.132812 -1.726562 "/></g></g></g><g fill="#ffffff" fill-opacity="1"><g transform="translate(374.622747, 258.918157)"><g><path d="M 9.222656 -4.378906 C 9.222656 -6.585938 7.785156 -8.757812 4.9375 -8.757812 C 2.09375 -8.757812 0.382812 -6.730469 0.382812 -4.234375 C 0.382812 -1.230469 2.332031 0.222656 4.78125 0.222656 C 6.96875 0.222656 8.566406 -0.863281 9.0625 -2.796875 L 6.234375 -2.796875 C 6.121094 -2.140625 5.625 -1.726562 4.8125 -1.726562 C 3.996094 -1.726562 3.371094 -2.125 3.230469 -3.546875 L 9.175781 -3.546875 C 9.207031 -3.835938 9.222656 -4.125 9.222656 -4.378906 Z M 4.796875 -6.808594 C 5.5625 -6.808594 6.058594 -6.3125 6.21875 -5.308594 L 3.324219 -5.308594 C 3.515625 -6.363281 4.042969 -6.808594 4.796875 -6.808594 Z M 4.796875 -6.808594 "/></g></g></g><g fill="#ffffff" fill-opacity="1"><g transform="translate(386.499128, 258.918157)"><g><path d="M 3.675781 -11.75 L 0.800781 -11.75 L 0.800781 -3.019531 C 0.800781 -2.382812 0.800781 -1.949219 0.832031 -1.503906 C 0.894531 -0.367188 1.644531 0.160156 2.972656 0.160156 C 3.613281 0.160156 4.125 0.128906 4.652344 0.078125 L 4.652344 -1.871094 C 3.898438 -1.839844 3.757812 -1.949219 3.707031 -2.285156 C 3.675781 -2.492188 3.675781 -2.667969 3.675781 -3.070312 Z M 3.675781 -11.75 "/></g></g></g></svg>